<svg width="190" height="190" viewBox="0 0 190 190" fill="none" xmlns="http://www.w3.org/2000/svg">
<circle cx="95" cy="95" r="95" fill="url(#paint0_linear_322_1184)"/>
<path d="M103.698 30.4496C102.465 30.2955 101.416 29.9598 100.548 29.4426C99.682 28.9128 98.9906 28.2644 98.4736 27.4974C97.9691 26.7319 97.625 25.9099 97.4412 25.0313C97.2574 24.1527 97.2183 23.2922 97.3237 22.4497L97.3756 22.0348C97.4841 21.1673 97.7349 20.3366 98.1279 19.543C98.5209 18.7493 99.0491 18.0492 99.7124 17.4426C100.388 16.8376 101.185 16.3881 102.103 16.0943C103.034 15.8021 104.071 15.7276 105.215 15.8707C106.46 16.0265 107.531 16.3967 108.428 16.9815C109.327 17.5537 110.015 18.2846 110.491 19.1743C110.969 20.0513 111.185 21.0297 111.139 22.1095L108.046 21.7225C108.033 21.2101 107.887 20.7449 107.608 20.3268C107.34 19.9102 106.969 19.5636 106.493 19.287C106.029 19.0119 105.483 18.835 104.854 18.7563C104.251 18.6808 103.697 18.72 103.192 18.874C102.7 19.0296 102.26 19.281 101.872 19.6283C101.496 19.9771 101.186 20.4109 100.943 20.9295C100.713 21.4372 100.558 22.0116 100.478 22.6528C100.395 23.3192 100.406 23.9401 100.513 24.5153C100.634 25.0796 100.845 25.5849 101.147 26.0313C101.45 26.4651 101.847 26.8211 102.335 27.0994C102.837 27.3792 103.408 27.5592 104.049 27.6395C104.904 27.7464 105.668 27.6632 106.341 27.3898C107.013 27.1164 107.524 26.7078 107.873 26.1641L107.232 28.2292L107.642 24.9476L110.49 25.3039L110.122 28.246C109.412 29.1277 108.502 29.761 107.394 30.1459C106.3 30.5199 105.068 30.6211 103.698 30.4496ZM103.965 25.1004L104.243 22.8749L111.825 23.8235L111.546 26.049L103.965 25.1004Z" fill="#121A1F"/>
<path d="M117.637 33.8255C116.801 33.528 116.112 33.1213 115.569 32.6053C115.039 32.0935 114.643 31.5224 114.384 30.8919C114.14 30.2538 114.011 29.5959 113.997 28.9182C113.999 28.2329 114.112 27.5739 114.337 26.9412L114.465 26.5831C114.699 25.9266 115.029 25.3381 115.457 24.8177C115.9 24.2896 116.416 23.8612 117.004 23.5324C117.591 23.2037 118.244 23.0125 118.963 22.9589C119.698 22.8977 120.465 23.0094 121.265 23.2941C122.315 23.6681 123.114 24.2213 123.66 24.9538C124.222 25.6786 124.559 26.491 124.669 27.391C124.783 28.279 124.681 29.1707 124.362 30.066L124.018 31.033L115.333 27.9413L115.913 26.3119L122.861 28.7852L121.662 29.2058C121.87 28.6208 121.965 28.0897 121.947 27.6124C121.928 27.1351 121.79 26.7295 121.533 26.3956C121.291 26.0541 120.925 25.7962 120.436 25.6219C119.935 25.4435 119.471 25.406 119.044 25.5096C118.617 25.6131 118.235 25.8539 117.899 26.2318C117.567 26.5979 117.288 27.0972 117.063 27.7299C116.855 28.3148 116.755 28.8579 116.765 29.3591C116.779 29.8483 116.923 30.2761 117.196 30.6423C117.469 31.0086 117.892 31.2937 118.465 31.4977C118.991 31.6846 119.457 31.7362 119.863 31.6522C120.27 31.5683 120.586 31.3983 120.811 31.1424L123.443 32.0794C123.066 32.685 122.578 33.1701 121.977 33.5346C121.377 33.8992 120.709 34.1121 119.974 34.1734C119.24 34.2347 118.46 34.1187 117.637 33.8255Z" fill="#121A1F"/>
<path d="M128.61 38.6881C127.687 38.1851 127.002 37.6678 126.555 37.1362C126.115 36.5935 125.907 35.9823 125.93 35.3027C125.971 34.618 126.243 33.8138 126.746 32.8902L131.128 24.8443L133.615 26.1987L129.179 34.3447C128.943 34.7787 128.872 35.1732 128.967 35.5281C129.08 35.8779 129.348 36.168 129.771 36.3982L131.123 37.1345L129.896 39.388L128.61 38.6881ZM127.333 28.5134L128.397 26.5604L134.94 30.1236L133.877 32.0766L127.333 28.5134Z" fill="#121A1F"/>
<path d="M139.229 46.7643C138.298 45.924 137.644 45.0695 137.267 44.2006C136.899 43.3224 136.779 42.4807 136.908 41.6756C137.046 40.861 137.416 40.1197 138.019 39.4517L140.262 41.476C140.025 41.7395 139.875 42.0478 139.812 42.4009C139.759 42.7625 139.819 43.1497 139.993 43.5624C140.175 43.9657 140.506 44.3838 140.986 44.8167C141.419 45.2071 141.832 45.4775 142.226 45.6277C142.619 45.7779 142.98 45.8221 143.309 45.7603C143.646 45.6891 143.934 45.5218 144.172 45.2584C144.469 44.9291 144.561 44.543 144.448 44.1002C144.344 43.648 144.003 43.1093 143.423 42.4842L142.711 41.7134C141.761 40.7036 141.231 39.6452 141.121 38.5384C141.01 37.4316 141.366 36.4219 142.189 35.5092C142.784 34.8506 143.452 34.4214 144.196 34.2217C144.948 34.0304 145.722 34.0624 146.515 34.3176C147.318 34.5634 148.104 35.0344 148.876 35.7303C149.685 36.4603 150.249 37.2253 150.569 38.0253C150.906 38.8244 151 39.618 150.853 40.4062C150.713 41.1849 150.338 41.913 149.727 42.5904L147.469 40.5534C147.698 40.2993 147.845 40.0137 147.909 39.6963C147.982 39.3696 147.956 39.03 147.83 38.6776C147.713 38.3337 147.477 38.0005 147.119 37.6779C146.78 37.3724 146.442 37.17 146.105 37.0707C145.778 36.9799 145.468 36.9823 145.177 37.0781C144.894 37.1644 144.651 37.3205 144.448 37.5463C144.184 37.8379 144.059 38.1853 144.071 38.5885C144.082 38.9916 144.306 39.4242 144.743 39.8862L145.47 40.6697C146.163 41.4146 146.678 42.1776 147.014 42.9588C147.359 43.7306 147.487 44.4866 147.4 45.2268C147.33 45.9661 147.007 46.6556 146.43 47.2954C145.835 47.954 145.139 48.3756 144.341 48.5603C143.561 48.744 142.733 48.6879 141.857 48.3921C140.98 48.0963 140.104 47.5537 139.229 46.7643Z" fill="#121A1F"/>
<path d="M148.355 56.3879C147.701 55.564 147.273 54.8201 147.07 54.1564C146.876 53.4847 146.923 52.8408 147.211 52.2245C147.516 51.6103 148.081 50.9763 148.905 50.3226L156.082 44.6283L157.842 46.8469L150.576 52.612C150.188 52.9192 149.969 53.2547 149.919 53.6187C149.885 53.9846 150.018 54.3562 150.318 54.7334L151.275 55.9395L149.265 57.5344L148.355 56.3879ZM151.155 46.5231L152.897 45.1409L157.528 50.9777L155.786 52.3599L151.155 46.5231Z" fill="#121A1F"/>
<path d="M153.838 64.8098L156.508 63.277L156.253 62.8319L159.154 61.1666C159.615 60.9017 159.899 60.5931 160.003 60.2408C160.108 59.8885 160.021 59.4706 159.744 58.9871C159.605 58.7453 159.417 58.4298 159.179 58.0404C158.94 57.6511 158.691 57.254 158.429 56.849C158.167 56.444 157.928 56.0774 157.71 55.7494L159.935 54.472C160.103 54.7122 160.295 54.9963 160.512 55.3243C160.73 55.6524 160.948 55.9946 161.167 56.351C161.387 56.7073 161.588 57.0448 161.771 57.3635C162.3 58.2867 162.613 59.1372 162.709 59.915C162.811 60.7038 162.688 61.4175 162.338 62.0563C162 62.6888 161.413 63.2447 160.578 63.7241L155.039 66.9034L153.838 64.8098ZM151.951 62.0575C151.579 61.4091 151.366 60.7714 151.313 60.1444C151.266 59.5284 151.378 58.96 151.649 58.4392C151.931 57.9122 152.374 57.4752 152.979 57.1282C153.638 56.7497 154.274 56.611 154.888 56.712C155.512 56.8066 156.099 57.1049 156.65 57.6068C157.212 58.1024 157.724 58.7513 158.184 59.5535L159.291 61.4822L157.824 62.3244L156.708 60.3792C156.443 59.9176 156.122 59.6267 155.746 59.5064C155.388 59.3908 155.016 59.4433 154.632 59.6641C154.269 59.8723 154.042 60.1635 153.95 60.5377C153.875 60.9166 153.97 61.3369 154.235 61.7985C154.405 62.0952 154.606 62.3306 154.837 62.5046C155.086 62.6833 155.381 62.777 155.722 62.7858C156.063 62.7945 156.465 62.6806 156.928 62.444L156.629 63.4489C155.971 63.7535 155.355 63.9024 154.781 63.8956C154.214 63.8999 153.689 63.7484 153.205 63.4413C152.729 63.1452 152.31 62.6839 151.951 62.0575Z" fill="#121A1F"/>
<path d="M156.064 69.3957L165.771 65.6205L166.646 67.8703L162.483 69.4892L162.463 69.4361C163.833 68.9033 165.002 68.7816 165.971 69.0709C166.945 69.3721 167.648 70.0777 168.079 71.1878L168.224 71.5598L165.779 72.5105L165.504 71.802C165.201 71.0225 164.754 70.5029 164.163 70.2431C163.585 69.9786 162.9 70.0003 162.108 70.308L157.166 72.2301L156.064 69.3957Z" fill="#121A1F"/>
<path d="M159.922 81.8916C159.669 80.8709 159.587 80.0164 159.677 79.3281C159.779 78.6368 160.089 78.0702 160.606 77.6284C161.138 77.1959 161.915 76.8528 162.936 76.5993L171.827 74.3906L172.51 77.1391L163.508 79.3753C163.028 79.4944 162.69 79.7091 162.493 80.0192C162.311 80.3385 162.278 80.7318 162.394 81.1992L162.765 82.6933L160.275 83.3119L159.922 81.8916ZM166.558 74.0738L168.716 73.5377L170.513 80.7687L168.355 81.3049L166.558 74.0738Z" fill="#121A1F"/>
<path d="M160.905 90.2968C160.827 89.4133 160.909 88.6173 161.151 87.9089C161.395 87.2131 161.749 86.6156 162.214 86.1165C162.692 85.6289 163.236 85.2372 163.846 84.9414C164.47 84.6572 165.116 84.4855 165.785 84.4262L166.164 84.3927C166.858 84.3312 167.531 84.386 168.182 84.5573C168.847 84.7401 169.451 85.03 169.995 85.4271C170.539 85.8241 170.986 86.3379 171.334 86.9686C171.696 87.6107 171.915 88.3546 171.99 89.2003C172.088 90.311 171.918 91.2674 171.481 92.0694C171.057 92.883 170.459 93.5275 169.687 94.003C168.927 94.4773 168.074 94.7564 167.127 94.8403L166.105 94.9309L165.292 85.7484L167.014 85.5958L167.665 92.9418L166.783 92.0277C167.401 91.9729 167.924 91.8376 168.35 91.6217C168.776 91.4059 169.087 91.1112 169.283 90.7376C169.492 90.3756 169.574 89.9358 169.528 89.4183C169.481 88.8882 169.322 88.4507 169.05 88.106C168.777 87.7612 168.399 87.5148 167.916 87.3668C167.444 87.2178 166.874 87.1729 166.205 87.2321C165.587 87.2869 165.052 87.4234 164.601 87.6414C164.162 87.8584 163.833 88.1674 163.614 88.5684C163.395 88.9694 163.313 89.4729 163.366 90.0787C163.416 90.6341 163.563 91.079 163.809 91.4134C164.055 91.7478 164.341 91.9641 164.668 92.0624L164.914 94.8456C164.207 94.7556 163.562 94.5138 162.98 94.1201C162.398 93.7264 161.926 93.2085 161.564 92.5664C161.202 91.9242 160.982 91.1677 160.905 90.2968Z" fill="#121A1F"/>
<path d="M160.868 102.085C160.946 101.354 161.15 100.7 161.479 100.124C161.807 99.5598 162.228 99.0823 162.741 98.6912C163.267 98.3015 163.864 98.0213 164.532 97.8507C165.199 97.6927 165.904 97.6534 166.648 97.733L167.082 97.7795C167.826 97.8591 168.507 98.0403 169.127 98.3233C169.745 98.6188 170.271 99.0001 170.706 99.4671C171.151 99.9481 171.475 100.499 171.676 101.119C171.89 101.741 171.958 102.417 171.879 103.148C171.79 103.98 171.531 104.678 171.101 105.244C170.683 105.811 170.103 106.227 169.361 106.492C168.632 106.758 167.755 106.855 166.73 106.784L167.552 106.069L174.659 106.829L174.333 109.872L160.537 108.395L160.793 105.995L165.084 106.454L165.039 106.87C164.06 106.727 163.245 106.43 162.592 105.977C161.938 105.538 161.462 104.984 161.164 104.315C160.879 103.647 160.78 102.903 160.868 102.085ZM163.319 103.112C163.27 103.578 163.325 104.011 163.486 104.41C163.659 104.824 163.934 105.165 164.313 105.435C164.691 105.718 165.163 105.889 165.73 105.95L166.429 106.025C166.984 106.084 167.463 106.014 167.866 105.816C168.27 105.617 168.593 105.333 168.837 104.964C169.08 104.595 169.226 104.183 169.275 103.73C169.329 103.226 169.245 102.758 169.023 102.326C168.813 101.909 168.494 101.563 168.064 101.287C167.647 101.013 167.143 100.845 166.551 100.781C165.946 100.716 165.411 100.774 164.946 100.953C164.481 101.133 164.107 101.412 163.824 101.789C163.542 102.167 163.373 102.608 163.319 103.112Z" fill="#121A1F"/>
<path d="M162.325 125.294L165.326 123.348L167.351 124.12L168.292 127.572L166.003 127.919L165.942 125.413L165.515 125.251L163.818 127.085L162.325 125.294ZM170.77 125.609L167.585 123.986L167.244 121.842L169.76 119.303L171.186 121.109L169.061 122.413L169.131 122.867L171.562 123.429L170.77 125.609ZM166.759 118.157L166.942 121.726L165.259 123.098L161.803 122.185L162.648 120.026L164.834 121.227L165.189 120.935L164.467 118.564L166.759 118.157Z" fill="#121A1F"/>
<path d="M147.831 135.572C148.576 134.578 149.388 133.833 150.268 133.337C151.157 132.848 152.063 132.569 152.986 132.501C153.901 132.442 154.785 132.551 155.639 132.828C156.493 133.104 157.26 133.497 157.939 134.006L158.273 134.257C158.973 134.782 159.57 135.412 160.064 136.147C160.558 136.882 160.904 137.688 161.101 138.565C161.291 139.452 161.286 140.367 161.086 141.309C160.878 142.262 160.428 143.2 159.736 144.122C158.983 145.126 158.13 145.872 157.177 146.361C156.235 146.858 155.259 147.092 154.25 147.064C153.252 147.044 152.295 146.746 151.38 146.17L153.251 143.677C153.702 143.92 154.178 144.024 154.68 143.989C155.174 143.963 155.66 143.813 156.136 143.536C156.605 143.27 157.03 142.884 157.41 142.377C157.775 141.891 158.016 141.39 158.132 140.876C158.241 140.371 158.241 139.864 158.132 139.355C158.016 138.856 157.793 138.372 157.463 137.903C157.136 137.452 156.715 137.032 156.198 136.644C155.66 136.241 155.116 135.944 154.563 135.751C154.013 135.576 153.47 135.509 152.932 135.549C152.405 135.597 151.9 135.765 151.415 136.051C150.924 136.347 150.484 136.754 150.096 137.271C149.579 137.96 149.272 138.665 149.176 139.385C149.08 140.104 149.181 140.751 149.48 141.323L148.005 139.742L150.651 141.726L148.929 144.022L146.557 142.243C146.144 141.189 146.045 140.085 146.26 138.932C146.479 137.797 147.002 136.676 147.831 135.572ZM152.343 138.457L154.137 139.803L149.552 145.915L147.758 144.57L152.343 138.457Z" fill="#121A1F"/>
<path d="M137.987 146.019C138.658 145.44 139.353 145.042 140.069 144.825C140.776 144.617 141.468 144.555 142.145 144.641C142.82 144.745 143.456 144.958 144.052 145.28C144.647 145.621 145.163 146.045 145.602 146.553L145.85 146.841C146.306 147.369 146.654 147.947 146.895 148.576C147.135 149.222 147.252 149.882 147.248 150.556C147.243 151.229 147.086 151.892 146.778 152.543C146.468 153.212 145.992 153.824 145.349 154.378C144.505 155.107 143.629 155.527 142.722 155.64C141.814 155.771 140.942 155.662 140.105 155.312C139.277 154.973 138.552 154.443 137.931 153.724L137.261 152.947L144.241 146.925L145.37 148.234L139.786 153.052L140.013 151.802C140.419 152.272 140.834 152.617 141.258 152.837C141.682 153.057 142.103 153.137 142.52 153.078C142.937 153.037 143.341 152.847 143.735 152.507C144.138 152.16 144.4 151.775 144.521 151.352C144.642 150.93 144.621 150.479 144.459 150C144.305 149.53 144.008 149.041 143.569 148.533C143.164 148.063 142.741 147.708 142.3 147.469C141.868 147.24 141.425 147.153 140.972 147.209C140.518 147.266 140.061 147.493 139.601 147.89C139.179 148.254 138.904 148.634 138.776 149.029C138.648 149.424 138.639 149.782 138.75 150.105L136.635 151.93C136.295 151.303 136.115 150.638 136.094 149.936C136.074 149.234 136.219 148.548 136.529 147.879C136.839 147.21 137.325 146.59 137.987 146.019Z" fill="#121A1F"/>
<path d="M128.341 153.164C129.234 152.609 130.022 152.268 130.704 152.142C131.394 152.026 132.028 152.146 132.607 152.502C133.183 152.876 133.748 153.509 134.304 154.402L139.143 162.181L136.738 163.677L131.839 155.801C131.578 155.381 131.269 155.125 130.914 155.033C130.554 154.959 130.17 155.048 129.761 155.303L128.453 156.116L127.098 153.937L128.341 153.164ZM137.822 157.071L138.997 158.959L132.67 162.894L131.495 161.006L137.822 157.071Z" fill="#121A1F"/>
<path d="M116.079 158.413C117.27 158.019 118.337 157.873 119.278 157.975C120.223 158.089 121.014 158.402 121.65 158.912C122.29 159.434 122.752 160.122 123.034 160.976L120.165 161.926C120.054 161.589 119.86 161.306 119.584 161.077C119.296 160.852 118.93 160.713 118.485 160.66C118.044 160.619 117.517 160.7 116.904 160.903C116.35 161.086 115.911 161.312 115.586 161.58C115.261 161.847 115.044 162.139 114.935 162.456C114.83 162.784 114.833 163.117 114.945 163.454C115.084 163.875 115.374 164.146 115.815 164.267C116.259 164.4 116.896 164.369 117.726 164.175L118.748 163.937C120.096 163.611 121.277 163.673 122.294 164.124C123.311 164.575 124.013 165.384 124.399 166.551C124.678 167.393 124.72 168.187 124.526 168.932C124.32 169.68 123.91 170.337 123.296 170.9C122.685 171.476 121.887 171.927 120.901 172.254C119.866 172.596 118.922 172.708 118.069 172.59C117.208 172.488 116.471 172.178 115.859 171.66C115.251 171.154 114.804 170.468 114.517 169.602L117.404 168.646C117.512 168.971 117.687 169.24 117.931 169.453C118.179 169.677 118.487 169.822 118.856 169.887C119.212 169.956 119.619 169.915 120.076 169.764C120.509 169.62 120.852 169.427 121.105 169.183C121.346 168.943 121.497 168.673 121.558 168.372C121.623 168.084 121.607 167.795 121.512 167.507C121.388 167.134 121.148 166.853 120.792 166.664C120.436 166.475 119.949 166.456 119.332 166.606L118.291 166.851C117.301 167.085 116.383 167.155 115.538 167.061C114.697 166.979 113.976 166.717 113.376 166.275C112.768 165.849 112.328 165.227 112.058 164.409C111.779 163.567 111.757 162.754 111.991 161.969C112.217 161.2 112.675 160.508 113.366 159.892C114.056 159.276 114.961 158.783 116.079 158.413Z" fill="#121A1F"/>
<path d="M103.194 161.57C104.234 161.411 105.092 161.408 105.769 161.561C106.448 161.727 106.984 162.087 107.377 162.642C107.758 163.212 108.029 164.017 108.187 165.057L109.57 174.113L106.771 174.541L105.371 165.371C105.296 164.883 105.113 164.526 104.823 164.301C104.521 164.091 104.133 164.022 103.657 164.095L102.135 164.327L101.748 161.791L103.194 161.57ZM110.37 168.896L110.705 171.094L103.34 172.219L103.004 170.02L110.37 168.896Z" fill="#121A1F"/>
<path d="M93.1093 162.153L93.1152 165.232L93.6284 165.231L93.6348 168.577C93.6359 169.109 93.7633 169.508 94.0173 169.773C94.2712 170.039 94.677 170.171 95.2345 170.17C95.5133 170.17 95.8807 170.163 96.3369 170.149C96.793 170.136 97.2618 170.116 97.7433 170.089C98.2248 170.063 98.6619 170.037 99.0547 170.011L99.0596 172.577C98.7682 172.603 98.4261 172.629 98.0334 172.655C97.6406 172.681 97.2351 172.701 96.817 172.714C96.3989 172.728 96.0061 172.735 95.6386 172.735C94.5742 172.737 93.6806 172.587 92.9577 172.284C92.2222 171.982 91.6638 171.52 91.2824 170.9C90.9011 170.293 90.7095 169.507 90.7077 168.544L90.6954 162.158L93.1093 162.153ZM96.435 161.881C97.1826 161.879 97.8418 162.011 98.4125 162.276C98.9706 162.541 99.4085 162.92 99.7262 163.414C100.044 163.92 100.204 164.522 100.205 165.219C100.206 165.979 100.011 166.6 99.6192 167.083C99.2274 167.578 98.6769 167.94 97.9677 168.169C97.2586 168.411 96.4415 168.533 95.5165 168.535L93.2926 168.539L93.2894 166.848L95.5322 166.843C96.0644 166.842 96.476 166.708 96.7669 166.442C97.0452 166.188 97.1839 165.839 97.1831 165.396C97.1823 164.977 97.0422 164.636 96.7629 164.37C96.471 164.117 96.0589 163.991 95.5267 163.992C95.1846 163.993 94.8806 164.051 94.6147 164.165C94.3362 164.292 94.1085 164.502 93.9317 164.794C93.7548 165.085 93.6542 165.491 93.6299 166.011L92.9062 165.252C92.9681 164.529 93.1444 163.921 93.4348 163.426C93.7127 162.931 94.1047 162.55 94.6111 162.283C95.1048 162.016 95.7127 161.882 96.435 161.881Z" fill="#121A1F"/>
<path d="M87.975 161.811L86.4482 172.114L84.0604 171.761L84.7151 167.342L84.7715 167.351C84.556 168.805 84.0827 169.881 83.3515 170.58C82.6078 171.276 81.6468 171.538 80.4685 171.363L80.0737 171.304L80.4581 168.71L81.2102 168.821C82.0375 168.944 82.7102 168.813 83.2283 168.429C83.7446 168.057 84.0649 167.451 84.1894 166.611L84.9667 161.365L87.975 161.811Z" fill="#121A1F"/>
<path d="M75.2118 158.981C76.2243 159.266 77.0073 159.617 77.5608 160.036C78.1108 160.468 78.4499 161.017 78.578 161.685C78.6905 162.361 78.6043 163.206 78.3196 164.218L75.8392 173.038L73.1129 172.271L75.6241 163.342C75.7579 162.866 75.7389 162.466 75.567 162.141C75.3794 161.825 75.0539 161.602 74.5903 161.472L73.1082 161.055L73.8029 158.585L75.2118 158.981ZM78.7216 168.616L78.1195 170.757L70.947 168.74L71.549 166.599L78.7216 168.616Z" fill="#121A1F"/>
<path d="M67.4087 155.668C68.2148 156.038 68.8655 156.504 69.3605 157.066C69.8441 157.622 70.1875 158.226 70.3907 158.877C70.5771 159.534 70.6476 160.201 70.6021 160.877C70.5399 161.56 70.3688 162.206 70.0887 162.816L69.9301 163.162C69.6394 163.795 69.2583 164.352 68.7868 164.833C68.2984 165.32 67.747 165.701 67.1325 165.977C66.5181 166.253 65.8506 166.386 65.1302 166.376C64.393 166.372 63.6385 166.193 62.8669 165.839C61.8534 165.374 61.1069 164.753 60.6273 163.975C60.1309 163.203 59.8675 162.364 59.8372 161.458C59.8016 160.564 59.982 159.684 60.3784 158.821L60.8065 157.888L69.1849 161.732L68.4635 163.305L61.7608 160.229L62.992 159.915C62.733 160.48 62.5917 161 62.568 161.477C62.5442 161.955 62.646 162.371 62.8734 162.726C63.0839 163.088 63.4253 163.377 63.8975 163.593C64.3812 163.815 64.8402 163.893 65.2746 163.828C65.709 163.762 66.1104 163.556 66.4787 163.209C66.8417 162.874 67.1632 162.401 67.4433 161.791C67.7023 161.226 67.8489 160.694 67.8832 160.194C67.9122 159.706 67.8068 159.267 67.567 158.878C67.3272 158.489 66.9309 158.168 66.3781 157.914C65.8714 157.682 65.4119 157.589 64.9995 157.637C64.5872 157.685 64.2574 157.826 64.0101 158.061L61.4707 156.896C61.8996 156.326 62.4292 155.886 63.0595 155.576C63.6898 155.265 64.3736 155.112 65.1108 155.116C65.8481 155.119 66.614 155.304 67.4087 155.668Z" fill="#121A1F"/>
<path d="M57.3032 149.851C57.8989 150.282 58.3653 150.783 58.7025 151.355C59.0294 151.919 59.2353 152.521 59.3202 153.161C59.3976 153.811 59.3447 154.469 59.1614 155.133C58.9678 155.791 58.652 156.423 58.2142 157.029L57.9582 157.383C57.5203 157.989 57.0248 158.491 56.4717 158.888C55.9084 159.279 55.3162 159.546 54.6953 159.692C54.0567 159.84 53.418 159.848 52.7795 159.715C52.1335 159.592 51.5126 159.315 50.9169 158.885C50.239 158.395 49.7612 157.823 49.4834 157.169C49.1982 156.525 49.1247 155.815 49.263 155.04C49.3938 154.275 49.7444 153.465 50.3147 152.611L50.5277 153.679L46.3421 159.472L43.8617 157.68L51.9879 146.433L53.9445 147.847L51.4176 151.344L51.0786 151.099C51.6883 150.32 52.3513 149.76 53.0676 149.417C53.7736 149.068 54.491 148.929 55.2198 149.003C55.9411 149.086 56.6356 149.369 57.3032 149.851ZM55.1953 151.471C54.8152 151.196 54.4118 151.029 53.9849 150.971C53.5404 150.916 53.1069 150.986 52.6846 151.181C52.2519 151.368 51.8686 151.693 51.5347 152.155L51.1228 152.725C50.7963 153.177 50.6193 153.628 50.5918 154.077C50.5643 154.526 50.6504 154.948 50.85 155.342C51.0497 155.737 51.3344 156.067 51.7041 156.335C52.115 156.631 52.5627 156.791 53.0472 156.813C53.514 156.837 53.9734 156.731 54.4255 156.495C54.8701 156.269 55.2668 155.915 55.6156 155.432C55.9718 154.939 56.1873 154.446 56.2622 153.953C56.3371 153.46 56.2807 152.997 56.093 152.565C55.9053 152.132 55.6061 151.767 55.1953 151.471Z" fill="#121A1F"/>
<path d="M36.4047 139.615L36.6142 143.187L34.9421 144.565L31.4765 143.677L32.3059 141.516L34.5141 142.701L34.8661 142.411L34.11 140.029L36.4047 139.615ZM31.9585 146.802L34.9431 144.835L36.9759 145.598L37.9405 149.039L35.6656 149.387L35.5817 146.895L35.1518 146.732L33.4627 148.567L31.9585 146.802ZM40.4193 146.996L37.2253 145.392L36.8645 143.251L39.3655 140.697L40.8257 142.499L38.7013 143.806L38.7792 144.259L41.1977 144.803L40.4193 146.996Z" fill="#121A1F"/>
<path d="M34.612 121.929C35.1077 123.067 35.3543 124.141 35.3519 125.151C35.3377 126.167 35.1326 127.092 34.7364 127.928C34.3352 128.752 33.8036 129.467 33.1415 130.073C32.4794 130.68 31.7592 131.152 30.9808 131.491L30.5974 131.658C29.7958 132.007 28.9534 132.215 28.0703 132.282C27.1871 132.348 26.3155 132.251 25.4555 131.99C24.5904 131.717 23.7974 131.26 23.0766 130.621C22.3507 129.969 21.7576 129.115 21.2973 128.058C20.7965 126.908 20.5688 125.797 20.6142 124.727C20.648 123.662 20.9261 122.698 21.4486 121.835C21.9594 120.977 22.6909 120.292 23.643 119.781L24.8874 122.639C24.4531 122.911 24.1274 123.274 23.9103 123.727C23.6883 124.17 23.5797 124.666 23.5845 125.217C23.5843 125.756 23.7106 126.316 23.9636 126.897C24.2064 127.454 24.5227 127.911 24.9124 128.267C25.2971 128.61 25.7378 128.861 26.2345 129.018C26.7262 129.163 27.2572 129.208 27.8276 129.153C28.3813 129.092 28.9544 128.932 29.547 128.674C30.1627 128.406 30.6908 128.079 31.1311 127.694C31.5548 127.302 31.8817 126.863 32.1119 126.376C32.3304 125.894 32.4347 125.371 32.4248 124.809C32.4098 124.235 32.2734 123.652 32.0154 123.059C31.6714 122.269 31.2103 121.655 30.632 121.215C30.0538 120.776 29.4418 120.545 28.7961 120.522L30.8997 120.021L27.8674 121.341L26.7216 118.71L29.4402 117.526C30.5609 117.688 31.5694 118.147 32.4656 118.904C33.3451 119.654 34.0606 120.662 34.612 121.929ZM29.8744 124.427L27.818 125.322L24.7677 118.317L26.824 117.421L29.8744 124.427Z" fill="#121A1F"/>
<path d="M30.4059 108.193C30.5756 109.064 30.5766 109.864 30.409 110.594C30.2389 111.311 29.9488 111.942 29.5385 112.487C29.1134 113.022 28.613 113.468 28.0371 113.825C27.4465 114.173 26.8215 114.411 26.1623 114.539L25.7892 114.612C25.1051 114.745 24.4304 114.76 23.7649 114.658C23.0845 114.545 22.4532 114.319 21.8708 113.981C21.2885 113.643 20.7913 113.178 20.3792 112.587C19.9522 111.986 19.6575 111.269 19.4952 110.436C19.2819 109.341 19.3513 108.372 19.7033 107.529C20.0406 106.676 20.5684 105.973 21.2868 105.42C21.9928 104.869 22.8122 104.503 23.745 104.321L24.7525 104.124L26.5157 113.173L24.818 113.504L23.4074 106.265L24.38 107.082C23.7706 107.201 23.2652 107.39 22.8638 107.649C22.4624 107.908 22.1837 108.233 22.0277 108.625C21.8568 109.007 21.8211 109.453 21.9205 109.963C22.0223 110.485 22.2265 110.904 22.5331 111.218C22.8397 111.533 23.2412 111.739 23.7378 111.836C24.2219 111.935 24.7935 111.92 25.4527 111.792C26.0622 111.673 26.58 111.482 27.0063 111.218C27.4201 110.957 27.715 110.615 27.891 110.194C28.0671 109.772 28.0969 109.263 27.9806 108.666C27.8739 108.119 27.681 107.691 27.4017 107.384C27.1224 107.077 26.8151 106.892 26.48 106.828L25.9455 104.086C26.6587 104.102 27.3251 104.275 27.9447 104.606C28.5643 104.937 29.0876 105.403 29.5146 106.004C29.9416 106.605 30.2387 107.335 30.4059 108.193Z" fill="#121A1F"/>
<path d="M28.9943 96.2933C29.0335 97.3443 28.9386 98.1974 28.7095 98.8527C28.4677 99.5084 28.0486 99.9996 27.4522 100.326C26.8426 100.641 26.0123 100.817 24.9613 100.857L15.8062 101.199L15.7005 98.3688L24.9695 98.0224C25.4633 98.0039 25.8385 97.8631 26.0949 97.5999C26.3382 97.3246 26.4509 96.9463 26.4329 96.4651L26.3754 94.9266L28.9396 94.8308L28.9943 96.2933ZM20.8985 102.587L18.6762 102.67L18.398 95.2247L20.6203 95.1417L20.8985 102.587Z" fill="#121A1F"/>
<path d="M30.5079 82.9804C30.2614 84.2104 29.861 85.2093 29.3065 85.9769C28.7396 86.7421 28.0771 87.2749 27.3191 87.5753C26.5486 87.8733 25.7223 87.9338 24.8402 87.7571L25.434 84.7938C25.7819 84.8635 26.1236 84.8351 26.4591 84.7085C26.7971 84.5694 27.0991 84.3198 27.3652 83.9596C27.6188 83.5969 27.8091 83.0987 27.9361 82.465C28.0506 81.8935 28.0719 81.4002 28 80.9852C27.9281 80.5702 27.7816 80.2371 27.5605 79.986C27.327 79.7325 27.0363 79.5708 26.6884 79.5011C26.2536 79.414 25.8746 79.5319 25.5514 79.8548C25.2158 80.1752 24.9273 80.7442 24.6859 81.5617L24.3873 82.5681C24.0041 83.8999 23.3651 84.8962 22.4702 85.5569C21.5753 86.2176 20.5253 86.4272 19.3202 86.1856C18.4504 86.0114 17.7398 85.6557 17.1884 85.1187C16.6394 84.5693 16.2718 83.8883 16.0858 83.0756C15.8873 82.2604 15.8901 81.3434 16.0943 80.3246C16.3084 79.2561 16.6777 78.3803 17.2024 77.6971C17.717 76.999 18.3509 76.5121 19.104 76.2366C19.8446 75.9585 20.6623 75.9091 21.5568 76.0884L20.9593 79.0703C20.6238 79.003 20.3032 79.0228 19.9975 79.1295C19.6794 79.2338 19.401 79.43 19.1623 79.7182C18.9261 79.9939 18.7607 80.3679 18.6661 80.84C18.5765 81.2873 18.5751 81.6812 18.6619 82.0217C18.7513 82.3497 18.9115 82.6144 19.1425 82.8158C19.3611 83.0147 19.6195 83.144 19.9177 83.2038C20.3029 83.281 20.6657 83.2115 21.0062 82.9954C21.3468 82.7794 21.6041 82.3657 21.7783 81.7544L22.0807 80.7295C22.3668 79.7529 22.7598 78.9206 23.2595 78.2324C23.7469 77.5418 24.331 77.045 25.0121 76.742C25.6832 76.4242 26.4411 76.3499 27.286 76.5192C28.1557 76.6935 28.8737 77.0765 29.4401 77.6682C29.9966 78.2449 30.3715 78.9856 30.565 79.8902C30.7585 80.7949 30.7395 81.8249 30.5079 82.9804Z" fill="#121A1F"/>
<path d="M34.146 70.1942C33.7691 71.1761 33.3466 71.9233 32.8785 72.4358C32.3985 72.9438 31.8201 73.2308 31.1433 73.2968C30.4592 73.3464 29.6262 73.1828 28.6443 72.8059L20.0911 69.5233L21.1059 66.8792L29.7655 70.2028C30.2269 70.3799 30.6272 70.3978 30.9664 70.2565C31.2984 70.0989 31.5506 69.7953 31.7232 69.3458L32.2748 67.9084L34.6704 68.8278L34.146 70.1942ZM24.2283 72.8009L22.1521 72.0041L24.8219 65.048L26.898 65.8448L24.2283 72.8009Z" fill="#121A1F"/>
<path d="M38.6206 61.1838L35.9442 59.6612L35.6904 60.1073L32.7827 58.4532C32.3201 58.19 31.9105 58.1028 31.5539 58.1915C31.1973 58.2802 30.8812 58.5669 30.6055 59.0515C30.4676 59.2938 30.2915 59.6163 30.0769 60.0191C29.8624 60.4219 29.6471 60.8388 29.431 61.2698C29.2149 61.7009 29.0208 62.0934 28.8486 62.4474L26.6182 61.1786C26.7403 60.9128 26.8875 60.6029 27.0597 60.2489C27.2319 59.8949 27.4159 59.5331 27.6116 59.1634C27.8074 58.7936 27.9961 58.4491 28.1778 58.1297C28.7041 57.2045 29.278 56.5032 29.8995 56.0258C30.5272 55.5373 31.2049 55.2814 31.9325 55.258C32.6492 55.2283 33.426 55.4516 34.2631 55.9278L39.8142 59.0856L38.6206 61.1838ZM37.2072 64.2065C36.8375 64.8563 36.396 65.3633 35.8828 65.7273C35.3758 66.0804 34.8292 66.2724 34.243 66.3034C33.6458 66.3281 33.0443 66.1682 32.4386 65.8236C31.7777 65.4476 31.3352 64.9699 31.1109 64.3904C30.8756 63.8046 30.8342 63.1469 30.9868 62.4173C31.1284 61.6815 31.4279 60.9116 31.8853 60.1076L32.9849 58.1746L34.4553 59.0111L33.3463 60.9605C33.0831 61.4231 32.9952 61.8469 33.0823 62.2318C33.1648 62.5994 33.3987 62.8928 33.7842 63.1121C34.1477 63.3189 34.514 63.3669 34.8831 63.2562C35.2475 63.1282 35.5613 62.8329 35.8244 62.3703C35.9936 62.0729 36.0944 61.7804 36.1269 61.4927C36.1546 61.1877 36.0856 60.8861 35.92 60.5878C35.7544 60.2895 35.4521 60.0009 35.013 59.722L36.031 59.4701C36.6275 59.8823 37.0685 60.3372 37.3539 60.8349C37.6456 61.3216 37.7818 61.851 37.7625 62.4231C37.7494 62.9842 37.5643 63.5787 37.2072 64.2065Z" fill="#121A1F"/>
<path d="M41.4328 56.9498L33.2447 50.5119L34.7367 48.6143L38.248 51.3751L38.2127 51.4199C37.0572 50.5114 36.3576 49.5664 36.1138 48.5849C35.8779 47.5934 36.128 46.6295 36.8642 45.6932L37.1109 45.3794L39.1729 47.0006L38.703 47.5983C38.186 48.2557 37.9659 48.9047 38.0426 49.5453C38.1092 50.178 38.4763 50.7567 39.1437 51.2815L43.3124 54.5592L41.4328 56.9498Z" fill="#121A1F"/>
<path d="M50.2203 47.2664C49.4717 48.0051 48.7784 48.5113 48.1404 48.7848C47.4935 49.0493 46.8482 49.0719 46.2045 48.8526C45.5609 48.6154 44.8698 48.1224 44.1311 47.3738L37.6961 40.8528L39.7119 38.8636L46.227 45.4658C46.5741 45.8175 46.9313 45.9991 47.2986 46.0105C47.666 46.004 48.0211 45.8316 48.3638 45.4934L49.4597 44.412L51.262 46.2384L50.2203 47.2664ZM40.1111 45.5461L38.5491 43.9632L43.8525 38.7298L45.4145 40.3127L40.1111 45.5461Z" fill="#121A1F"/>
<path d="M56.9688 42.1101C56.2491 42.6286 55.5228 42.9645 54.7898 43.1177C54.0672 43.2635 53.3726 43.2641 52.7062 43.1195C52.0427 42.9572 51.4281 42.6894 50.8624 42.316C50.2996 41.925 49.8219 41.457 49.4294 40.9121L49.2072 40.6037C48.7998 40.0382 48.5035 39.4318 48.3182 38.7844C48.1358 38.1193 48.0764 37.4515 48.14 36.781C48.2036 36.1106 48.4175 35.4645 48.7818 34.8429C49.1489 34.2036 49.6769 33.6358 50.3658 33.1395C51.2705 32.4877 52.1795 32.1453 53.0926 32.1121C54.0086 32.0613 54.8682 32.2464 55.6712 32.6673C56.4668 33.0781 57.1424 33.669 57.6979 34.4401L58.2979 35.2728L50.8182 40.6612L49.8072 39.2578L55.7909 34.9471L55.4556 36.1726C55.0926 35.6688 54.7096 35.2888 54.3064 35.0327C53.9032 34.7765 53.4911 34.6596 53.0699 34.6819C52.6515 34.6866 52.2316 34.8407 51.8101 35.1444C51.3783 35.4555 51.0836 35.8161 50.9262 36.2262C50.7688 36.6364 50.75 37.0872 50.8698 37.5787C50.9822 38.0599 51.2347 38.573 51.6273 39.1179C51.9902 39.6217 52.3807 40.0119 52.7987 40.2887C53.2092 40.5551 53.6428 40.68 54.0994 40.6634C54.556 40.6469 55.031 40.4608 55.5245 40.1053C55.9769 39.7794 56.2841 39.4254 56.446 39.0432C56.608 38.661 56.6478 38.3044 56.5654 37.9733L58.8325 36.3401C59.1165 36.9945 59.2378 37.6723 59.1964 38.3736C59.1551 39.075 58.9508 39.7453 58.5837 40.3846C58.2165 41.0239 57.6782 41.5991 56.9688 42.1101Z" fill="#121A1F"/>
<path d="M67.0129 36.188C66.3445 36.4936 65.6784 36.6518 65.0146 36.6627C64.3623 36.6683 63.737 36.5501 63.1387 36.3081C62.5352 36.0546 61.9896 35.684 61.5019 35.1963C61.0258 34.7034 60.6323 34.117 60.3215 33.4371L60.1397 33.0395C59.8289 32.3596 59.6371 31.681 59.5643 31.0037C59.503 30.3211 59.5624 29.6739 59.7425 29.0621C59.9289 28.4336 60.2376 27.8745 60.6686 27.3848C61.0943 26.8837 61.6414 26.4803 62.3098 26.1747C63.0704 25.827 63.8037 25.6938 64.5096 25.7751C65.2103 25.8449 65.8637 26.1314 66.4699 26.6345C67.0708 27.1261 67.602 27.8307 68.0633 28.7484L67.029 28.4061L64.0576 21.9064L66.8407 20.6341L72.6097 33.2531L70.4144 34.2568L68.6204 30.3328L69.0007 30.1589C69.3771 31.0736 69.5373 31.9269 69.4813 32.7188C69.4369 33.5054 69.203 34.1975 68.7796 34.7952C68.3509 35.3813 67.762 35.8455 67.0129 36.188ZM66.6454 33.5555C67.0718 33.3606 67.4157 33.0919 67.6771 32.7494C67.9448 32.3902 68.0981 31.9788 68.1369 31.5152C68.1873 31.0463 68.0939 30.5526 67.8569 30.034L67.5645 29.3944C67.3326 28.8873 67.0282 28.511 66.6512 28.2653C66.2742 28.0197 65.8649 27.8864 65.4234 27.8653C64.9818 27.8442 64.5536 27.9285 64.1387 28.1182C63.6778 28.3289 63.3182 28.6396 63.0601 29.0502C62.8082 29.444 62.6734 29.8958 62.6556 30.4055C62.6325 30.9037 62.7448 31.4236 62.9925 31.9652C63.2453 32.5184 63.5677 32.9492 63.9595 33.2577C64.3514 33.5663 64.7817 33.7457 65.2506 33.7961C65.7195 33.8464 66.1844 33.7662 66.6454 33.5555Z" fill="#121A1F"/>
<path d="M86.258 23.0999L83.0535 21.5095L82.6868 19.3739L85.1772 16.8056L86.6421 18.5983L84.5175 19.9274L84.5947 20.377L87.0378 20.9025L86.258 23.0999ZM82.2249 15.6733L82.4518 19.2407L80.7806 20.6269L77.314 19.7565L78.1409 17.6088L80.3465 18.7729L80.7013 18.4806L79.9459 16.1032L82.2249 15.6733ZM77.8577 22.9224L80.8353 20.9454L82.8732 21.6947L83.8494 25.1335L81.5607 25.5072L81.4798 23.014L81.0478 22.8567L79.3756 24.6867L77.8577 22.9224Z" fill="#121A1F"/>
<path fill-rule="evenodd" clip-rule="evenodd" d="M105.709 80.8568C101.878 84.6877 94.8967 84.6893 91.0642 80.8568L89.4929 79.2854L86.3501 82.4281L87.9215 83.9995C90.7091 86.787 94.5463 88.1793 98.3852 88.1809L78.9962 107.57L82.1389 110.712L101.528 91.3236C101.529 95.1624 102.922 98.9996 105.709 101.787L107.281 103.359L110.423 100.216L108.852 98.6445C105.019 94.812 105.021 87.8304 108.852 83.9995L110.423 82.4281L107.281 79.2854L105.709 80.8568Z" fill="#121A1F"/>
<defs>
<linearGradient id="paint0_linear_322_1184" x1="0" y1="95" x2="190" y2="95" gradientUnits="userSpaceOnUse">
<stop stop-color="#3D7EAA"/>
<stop offset="1" stop-color="#FFE47A"/>
</linearGradient>
</defs>
</svg>
