<svg width="30" height="30" viewBox="0 0 30 30" fill="none" xmlns="http://www.w3.org/2000/svg">
<path d="M9.64284 27.8572C14.3767 27.8572 18.2143 24.0197 18.2143 19.2858C18.2143 14.5519 14.3767 10.7144 9.64284 10.7144C4.90897 10.7144 1.07141 14.5519 1.07141 19.2858C1.07141 24.0197 4.90897 27.8572 9.64284 27.8572Z" stroke="white" stroke-width="1.5" stroke-linecap="round" stroke-linejoin="round"/>
<path d="M20.3571 27.8572C25.091 27.8572 28.9286 24.0197 28.9286 19.2858C28.9286 14.5519 25.091 10.7144 20.3571 10.7144C15.6233 10.7144 11.7857 14.5519 11.7857 19.2858C11.7857 24.0197 15.6233 27.8572 20.3571 27.8572Z" stroke="white" stroke-width="1.5" stroke-linecap="round" stroke-linejoin="round"/>
<path d="M15 19.2859C19.7338 19.2859 23.5714 15.4484 23.5714 10.7145C23.5714 5.98063 19.7338 2.14307 15 2.14307C10.2661 2.14307 6.42853 5.98063 6.42853 10.7145C6.42853 15.4484 10.2661 19.2859 15 19.2859Z" stroke="white" stroke-width="1.5" stroke-linecap="round" stroke-linejoin="round"/>
</svg>
