<svg width="40" height="40" viewBox="0 0 40 40" fill="none" xmlns="http://www.w3.org/2000/svg">
<path d="M36.8857 15.7143H3.11429C1.51429 15.7143 0.828575 13.9715 2.08572 13.1429L18.9714 2.08577C19.2832 1.90237 19.6383 1.80566 20 1.80566C20.3617 1.80566 20.7168 1.90237 21.0286 2.08577L37.9143 13.1429C39.1714 13.9715 38.4857 15.7143 36.8857 15.7143Z" stroke="#FFE47A" stroke-width="1.5" stroke-linecap="round" stroke-linejoin="round"/>
<path d="M37.1429 31.4287H2.85716C2.06818 31.4287 1.42859 32.0683 1.42859 32.8573V37.143C1.42859 37.932 2.06818 38.5716 2.85716 38.5716H37.1429C37.9319 38.5716 38.5714 37.932 38.5714 37.143V32.8573C38.5714 32.0683 37.9319 31.4287 37.1429 31.4287Z" stroke="#FFE47A" stroke-width="1.5" stroke-linecap="round" stroke-linejoin="round"/>
<path d="M5.71429 15.7139V31.4282" stroke="#FFE47A" stroke-width="1.5" stroke-linecap="round" stroke-linejoin="round"/>
<path d="M12.8572 15.7139V31.4282" stroke="#FFE47A" stroke-width="1.5" stroke-linecap="round" stroke-linejoin="round"/>
<path d="M20 15.7139V31.4282" stroke="#FFE47A" stroke-width="1.5" stroke-linecap="round" stroke-linejoin="round"/>
<path d="M27.1429 15.7139V31.4282" stroke="#FFE47A" stroke-width="1.5" stroke-linecap="round" stroke-linejoin="round"/>
<path d="M34.2857 15.7139V31.4282" stroke="#FFE47A" stroke-width="1.5" stroke-linecap="round" stroke-linejoin="round"/>
</svg>
