<svg width="16" height="16" viewBox="0 0 16 16" fill="none" xmlns="http://www.w3.org/2000/svg">
<g clip-path="url(#clip0_229_96)">
<path d="M5.32087 14.4689C7.68781 14.4689 9.60659 12.5501 9.60659 10.1832C9.60659 7.81624 7.68781 5.89746 5.32087 5.89746C2.95394 5.89746 1.03516 7.81624 1.03516 10.1832C1.03516 12.5501 2.95394 14.4689 5.32087 14.4689Z" stroke="#121A1F" stroke-linecap="round" stroke-linejoin="round"/>
<path d="M10.6783 14.4689C13.0452 14.4689 14.964 12.5501 14.964 10.1832C14.964 7.81624 13.0452 5.89746 10.6783 5.89746C8.31136 5.89746 6.39258 7.81624 6.39258 10.1832C6.39258 12.5501 8.31136 14.4689 10.6783 14.4689Z" stroke="#121A1F" stroke-linecap="round" stroke-linejoin="round"/>
<path d="M7.99861 10.1828C10.3655 10.1828 12.2843 8.26398 12.2843 5.89704C12.2843 3.53011 10.3655 1.61133 7.99861 1.61133C5.63167 1.61133 3.71289 3.53011 3.71289 5.89704C3.71289 8.26398 5.63167 10.1828 7.99861 10.1828Z" stroke="#121A1F" stroke-linecap="round" stroke-linejoin="round"/>
</g>
<defs>
<clipPath id="clip0_229_96">
<rect width="15" height="15" fill="white" transform="translate(0.5 0.540039)"/>
</clipPath>
</defs>
</svg>
