<svg width="21" height="21" viewBox="0 0 21 21" fill="none" xmlns="http://www.w3.org/2000/svg">
<g clip-path="url(#clip0_322_652)">
<path d="M20.677 11.1745C20.677 11.1744 20.677 11.1744 20.6769 11.1743L16.9008 1.69288C16.8207 1.49143 16.5923 1.39308 16.3909 1.47322C16.3907 1.47327 16.3906 1.47332 16.3904 1.47342L1.07138 7.57332C1.00891 7.60032 0.954726 7.6434 0.914337 7.69817C0.786936 7.76438 0.706452 7.89541 0.705078 8.03895V18.2467C0.705078 18.4635 0.880867 18.6393 1.09768 18.6393H17.5871C17.8039 18.6393 17.9797 18.4635 17.9797 18.2467V12.6717L20.4578 11.6847C20.6592 11.6044 20.7573 11.376 20.677 11.1745ZM17.1945 17.8541H1.49029V8.43156H17.1945V17.8541ZM7.2557 7.64831L13.8295 5.02885C14.4162 5.64553 15.2291 5.99603 16.0803 5.99937L16.7359 7.64831H7.2557ZM17.9797 11.8284V8.03895C17.9797 7.82214 17.8039 7.64635 17.5871 7.64635H17.5808L16.7489 5.5569C16.7397 5.53948 16.7289 5.52289 16.7167 5.50744C16.6746 5.31835 16.4995 5.18933 16.3064 5.20513C15.5144 5.27732 14.7397 4.9437 14.248 4.31863C14.1257 4.16762 13.9106 4.13008 13.7443 4.23068C13.7256 4.23289 13.7071 4.23633 13.6889 4.24089L5.66329 7.4367C5.56617 7.47478 5.48848 7.55031 5.44775 7.64635H3.01046L16.3166 2.34814L19.8026 11.1013L17.9797 11.8284Z" fill="#FFE47A"/>
<path d="M2.55583 15.2036C3.31808 15.4289 3.91454 16.0247 4.14078 16.7866C4.1904 16.9529 4.34336 17.0669 4.5169 17.0669C4.53726 17.0657 4.55748 17.0626 4.57736 17.0579C4.59498 17.0629 4.61299 17.0666 4.63114 17.0689H14.0537C14.0699 17.0668 14.0859 17.0635 14.1016 17.0591C14.2977 17.1068 14.4954 16.9865 14.5432 16.7903C14.5433 16.7896 14.5435 16.7889 14.5436 16.7882C14.7693 16.0255 15.3659 15.4289 16.1286 15.2032C16.3136 15.1467 16.4285 14.9624 16.3979 14.7714C16.4032 14.7523 16.4069 14.7329 16.4093 14.7133V11.5724C16.407 11.5527 16.4031 11.5333 16.3975 11.5143C16.4283 11.3233 16.3133 11.1388 16.1282 11.0825C15.3655 10.8569 14.769 10.26 14.544 9.49712C14.4872 9.31087 14.3011 9.19565 14.109 9.22779C14.0909 9.22273 14.0724 9.21905 14.0537 9.2168H4.63114C4.61137 9.21915 4.59179 9.22308 4.57265 9.22857C4.38169 9.19815 4.19746 9.31303 4.14078 9.4979C3.91498 10.2605 3.31847 10.8569 2.55583 11.0825C2.37087 11.139 2.25593 11.3233 2.28651 11.5143C2.2814 11.5334 2.27772 11.5528 2.27551 11.5724V14.7133C2.27777 14.7317 2.28145 14.75 2.28651 14.7678C2.25431 14.9601 2.36949 15.1465 2.55583 15.2036ZM3.06072 11.7318C3.84907 11.4152 4.47391 10.7904 4.79054 10.002H13.8939C14.2107 10.7904 14.8356 11.4152 15.6241 11.7318V14.5539C14.836 14.8709 14.2113 15.4956 13.8943 16.2837H4.79054C4.47356 15.4956 3.84883 14.8709 3.06072 14.5539V11.7318Z" fill="#FFE47A"/>
<path d="M9.34196 15.4984C10.643 15.4984 11.6976 14.4437 11.6976 13.1427C11.6976 11.8417 10.643 10.7871 9.34196 10.7871C8.04096 10.7871 6.98633 11.8417 6.98633 13.1427C6.9876 14.4432 8.0415 15.4971 9.34196 15.4984ZM9.34196 11.5723C10.2093 11.5723 10.9124 12.2754 10.9124 13.1427C10.9124 14.0101 10.2093 14.7132 9.34196 14.7132C8.47465 14.7132 7.77154 14.0101 7.77154 13.1427C7.77154 12.2754 8.47465 11.5723 9.34196 11.5723Z" fill="#FFE47A"/>
<path d="M5.02445 13.7325C5.34968 13.7325 5.61336 13.4688 5.61336 13.1436C5.61336 12.8184 5.34968 12.5547 5.02445 12.5547C4.69923 12.5547 4.43555 12.8184 4.43555 13.1436C4.43555 13.4689 4.69923 13.7325 5.02445 13.7325ZM5.02445 12.9473C5.13286 12.9473 5.22076 13.0352 5.22076 13.1436C5.22076 13.252 5.13286 13.3399 5.02445 13.3399C4.91605 13.3399 4.82815 13.252 4.82815 13.1436C4.82815 13.0352 4.91605 12.9473 5.02445 12.9473Z" fill="#FFE47A"/>
<path d="M13.6612 13.7325C13.9864 13.7325 14.2501 13.4688 14.2501 13.1436C14.2501 12.8184 13.9864 12.5547 13.6612 12.5547C13.3359 12.5547 13.0723 12.8184 13.0723 13.1436C13.0723 13.4689 13.3359 13.7325 13.6612 13.7325ZM13.6612 12.9473C13.7696 12.9473 13.8575 13.0352 13.8575 13.1436C13.8575 13.252 13.7696 13.3399 13.6612 13.3399C13.5528 13.3399 13.4649 13.252 13.4649 13.1436C13.4649 13.0352 13.5528 12.9473 13.6612 12.9473Z" fill="#FFE47A"/>
</g>
<defs>
<clipPath id="clip0_322_652">
<rect width="20" height="20" fill="white" transform="translate(0.705078 0.0410156)"/>
</clipPath>
</defs>
</svg>
