<svg width="30" height="30" viewBox="0 0 30 30" fill="none" xmlns="http://www.w3.org/2000/svg">
<path d="M14.999 0.320312C17.7554 0.320313 20.3996 1.4162 22.3486 3.36523C24.2975 5.31418 25.3925 7.95772 25.3926 10.7139C25.3924 12.2234 24.7251 14.1581 23.8164 16.126C22.8944 18.1225 21.6711 20.262 20.458 22.2178C19.2433 24.176 18.0293 25.9646 17.1201 27.2627C16.6655 27.9118 16.2864 28.4401 16.0205 28.8057C15.8877 28.9883 15.7825 29.1316 15.7109 29.2285C15.6754 29.2766 15.6475 29.3138 15.6289 29.3389C15.6199 29.351 15.6122 29.3608 15.6074 29.3672C15.6051 29.3702 15.6028 29.3734 15.6016 29.375L15.6006 29.377L15.5996 29.3779C15.458 29.5667 15.2351 29.6787 14.999 29.6787C14.7631 29.6785 14.5409 29.5667 14.3994 29.3779L14.999 28.9287L14.3984 29.3779V29.377L14.3965 29.375C14.3952 29.3733 14.3939 29.3703 14.3916 29.3672C14.3868 29.3607 14.3794 29.3513 14.3701 29.3389C14.3515 29.3138 14.3237 29.2767 14.2881 29.2285C14.2164 29.1315 14.1115 28.9885 13.9785 28.8057C13.7126 28.44 13.3328 27.9121 12.8779 27.2627C11.9687 25.9645 10.7547 24.1761 9.54004 22.2178C8.32691 20.2619 7.10465 18.1226 6.18262 16.126C5.33067 14.281 4.69095 12.4654 4.61426 11.002L4.60645 10.7139C4.60652 7.95783 5.7017 5.31416 7.65039 3.36523C9.59926 1.41636 12.2429 0.320499 14.999 0.320312ZM14.999 1.82129C12.6407 1.82148 10.3785 2.75821 8.71094 4.42578C7.04356 6.09341 6.10652 8.35565 6.10645 10.7139L6.1123 10.9375C6.1749 12.0832 6.70108 13.6718 7.54395 15.4971C8.42988 17.4155 9.6181 19.4964 10.8154 21.4268C12.0111 23.3545 13.2077 25.1192 14.1064 26.4023C14.4544 26.8992 14.7587 27.3232 14.999 27.6562C15.2394 27.3232 15.5436 26.8992 15.8916 26.4023C16.7903 25.1192 17.9879 23.3545 19.1836 21.4268C20.3808 19.4966 21.5682 17.4153 22.4541 15.4971C23.3532 13.55 23.8924 11.8721 23.8926 10.7139C23.8925 8.35545 22.9548 6.09345 21.2871 4.42578C19.6194 2.75822 17.3574 1.82129 14.999 1.82129ZM14.999 6.75C17.1883 6.75 18.9636 8.52464 18.9639 10.7139C18.9639 12.9033 17.1884 14.6787 14.999 14.6787C12.8099 14.6783 11.0352 12.9031 11.0352 10.7139C11.0354 8.52488 12.8101 6.75037 14.999 6.75ZM14.999 8.25C13.6385 8.25037 12.5354 9.3533 12.5352 10.7139C12.5352 12.0746 13.6384 13.1783 14.999 13.1787C16.36 13.1787 17.4639 12.0749 17.4639 10.7139C17.4636 9.35307 16.3599 8.25 14.999 8.25Z" fill="black"/>
</svg>
