<svg width="40" height="40" viewBox="0 0 40 40" fill="none" xmlns="http://www.w3.org/2000/svg">
<g clip-path="url(#clip0_322_1037)">
<path d="M19.9999 0.677734C23.6084 0.677808 27.0692 2.11156 29.621 4.66309C32.1728 7.21492 33.6063 10.6763 33.6063 14.2852V16.3926H35.7137C36.6704 16.3926 37.5881 16.7728 38.2645 17.4492C38.941 18.1257 39.3212 19.0433 39.3212 20V24.2852C39.3212 25.2418 38.941 26.1595 38.2645 26.8359C37.5881 27.5123 36.6704 27.8926 35.7137 27.8926H33.6063V29.2852C33.6063 30.9995 32.9259 32.6442 31.7137 33.8564C30.665 34.9051 29.2929 35.5553 27.8319 35.7119C27.6844 36.5934 27.2679 37.4144 26.6278 38.0547C25.8175 38.865 24.718 39.3201 23.5721 39.3203H19.286C18.14 39.3203 17.0407 38.865 16.2303 38.0547C15.42 37.2443 14.9647 36.1451 14.9647 34.999C14.9648 33.853 15.42 32.7537 16.2303 31.9434C17.0407 31.1331 18.14 30.6778 19.286 30.6777H23.5721C24.718 30.6779 25.8175 31.1331 26.6278 31.9434C27.2476 32.5632 27.6578 33.3526 27.8173 34.2021C28.8847 34.0557 29.8827 33.5663 30.6532 32.7959C31.5841 31.8649 32.1063 30.6017 32.1063 29.2852V27.7559C31.8127 27.648 31.5416 27.4802 31.3163 27.2549C30.9078 26.8463 30.6786 26.2916 30.6786 25.7139V18.5713C30.6786 17.9936 30.9078 17.4388 31.3163 17.0303C31.5417 16.8049 31.8126 16.6362 32.1063 16.5283V14.2852C32.1063 11.0741 30.831 7.99416 28.5604 5.72363C26.29 3.45341 23.2106 2.17781 19.9999 2.17773C16.789 2.17783 13.7088 3.45319 11.4384 5.72363C9.16794 7.99414 7.89246 11.0742 7.89246 14.2852V16.5273C8.18672 16.6352 8.45771 16.8046 8.68347 17.0303C9.09203 17.4388 9.32117 17.9935 9.32117 18.5713V25.7139C9.32117 26.2917 9.09203 26.8463 8.68347 27.2549C8.27492 27.6634 7.72018 27.8926 7.14246 27.8926H4.28601C3.32934 27.8926 2.4117 27.5124 1.73523 26.8359C1.05876 26.1595 0.678589 25.2418 0.678589 24.2852V20C0.678589 19.0433 1.05876 18.1257 1.73523 17.4492C2.4117 16.7727 3.32934 16.3926 4.28601 16.3926H6.39246V14.2852C6.39246 10.6764 7.82609 7.2149 10.3778 4.66309C12.9296 2.11134 16.3912 0.677831 19.9999 0.677734ZM19.286 32.1777C18.5379 32.1778 17.82 32.4749 17.2909 33.0039C16.7618 33.533 16.4648 34.2508 16.4647 34.999C16.4647 35.7472 16.7619 36.465 17.2909 36.9941C17.82 37.5231 18.5379 37.8203 19.286 37.8203H23.5721C24.3202 37.8201 25.0383 37.5231 25.5673 36.9941C26.0938 36.4674 26.3899 35.7534 26.3925 35.0088V34.9893C26.3898 34.2447 26.0939 33.5307 25.5673 33.0039C25.0383 32.4749 24.3202 32.1779 23.5721 32.1777H19.286ZM4.07703 17.9033C3.59483 17.9513 3.14143 18.1641 2.79578 18.5098C2.40061 18.9049 2.17859 19.4412 2.17859 20V24.2852C2.17859 24.844 2.40061 25.3802 2.79578 25.7754C3.19094 26.1706 3.72716 26.3926 4.28601 26.3926H7.14246C7.32243 26.3926 7.49567 26.3206 7.62292 26.1934C7.74996 26.0661 7.82117 25.8937 7.82117 25.7139V18.5713C7.82117 18.3915 7.74996 18.219 7.62292 18.0918C7.49567 17.9645 7.32242 17.8926 7.14246 17.8926H4.28601L4.07703 17.9033ZM32.8573 17.8926C32.6774 17.8926 32.504 17.9646 32.3768 18.0918C32.2499 18.219 32.1786 18.3915 32.1786 18.5713V25.7139C32.1786 25.8936 32.2499 26.0661 32.3768 26.1934C32.504 26.3206 32.6774 26.3925 32.8573 26.3926H35.7137L35.9227 26.3818C36.4049 26.3339 36.8583 26.121 37.204 25.7754C37.5991 25.3802 37.8212 24.844 37.8212 24.2852V20C37.8212 19.4412 37.5991 18.9049 37.204 18.5098C36.8088 18.1147 36.2725 17.8926 35.7137 17.8926H32.8573ZM24.286 20.6777C24.7001 20.6779 25.036 21.0136 25.036 21.4277C25.036 22.7116 24.2942 23.6402 23.329 24.2109C22.381 24.7713 21.168 25.0272 20.0009 25.0273C18.8337 25.0273 17.6208 24.7712 16.6727 24.2109C15.7072 23.6402 14.9647 22.7119 14.9647 21.4277C14.9647 21.0135 15.3005 20.6777 15.7147 20.6777C16.1288 20.6779 16.4647 21.0136 16.4647 21.4277C16.4647 22.0436 16.7938 22.5407 17.4354 22.9199C18.0944 23.3093 19.0255 23.5273 20.0009 23.5273C20.976 23.5272 21.9065 23.3093 22.5653 22.9199C23.2067 22.5407 23.536 22.0435 23.536 21.4277C23.536 21.0136 23.8719 20.6778 24.286 20.6777ZM15.7147 10.6777C16.1288 10.6779 16.4647 11.0136 16.4647 11.4277V15.7139C16.4645 16.1278 16.1286 16.4637 15.7147 16.4639C15.3006 16.4639 14.9649 16.1279 14.9647 15.7139V11.4277C14.9647 11.0135 15.3005 10.6777 15.7147 10.6777ZM24.286 10.6777C24.7001 10.6779 25.036 11.0136 25.036 11.4277V15.7139C25.0358 16.1278 24.7 16.4637 24.286 16.4639C23.8719 16.4639 23.5362 16.1279 23.536 15.7139V11.4277C23.536 11.0135 23.8718 10.6777 24.286 10.6777Z" fill="url(#paint0_linear_322_1037)"/>
</g>
<defs>
<linearGradient id="paint0_linear_322_1037" x1="0.678589" y1="19.999" x2="39.3212" y2="19.999" gradientUnits="userSpaceOnUse">
<stop stop-color="#3D7EAA"/>
<stop offset="1" stop-color="#FFE47A"/>
</linearGradient>
<clipPath id="clip0_322_1037">
<rect width="40" height="40" fill="white"/>
</clipPath>
</defs>
</svg>
