<svg width="70" height="70" viewBox="0 0 70 70" fill="none" xmlns="http://www.w3.org/2000/svg">
<path d="M51.4082 48.0612C48.1429 50.6735 43.5714 52.6327 39 52.6327C28.551 52.6327 21.3673 44.7959 21.3673 34.3469C21.3673 23.898 28.551 16.7143 39 16.7143C43.5714 16.7143 48.1429 18.0204 51.4082 21.2857L53.3674 23.2449L63.8163 13.449L61.2041 11.4898C55.3265 6.26529 47.4898 3 39 3C20.7143 3 7 16.7143 7 35C7 53.2857 20.7143 67 39 67C47.4898 67 55.3265 63.7347 61.2041 58.5102L63.8163 56.551L53.3674 46.102L51.4082 48.0612Z" fill="white"/>
<path d="M38.3471 45.4488C44.1179 45.4488 48.796 40.7706 48.796 34.9998C48.796 29.229 44.1179 24.5508 38.3471 24.5508C32.5762 24.5508 27.8981 29.229 27.8981 34.9998C27.8981 40.7706 32.5762 45.4488 38.3471 45.4488Z" fill="#FFE47A"/>
</svg>
