<svg width="40" height="41" viewBox="0 0 40 41" fill="none" xmlns="http://www.w3.org/2000/svg">
<path d="M8.57132 39.1964C12.5162 39.1964 15.7142 35.9984 15.7142 32.0535C15.7142 28.1086 12.5162 24.9106 8.57132 24.9106C4.62643 24.9106 1.42847 28.1086 1.42847 32.0535C1.42847 35.9984 4.62643 39.1964 8.57132 39.1964Z" stroke="#121A1F" stroke-width="1.5" stroke-linecap="round" stroke-linejoin="round"/>
<path d="M15.7141 9.19631V4.91059C15.7141 4.15283 15.4131 3.42611 14.8773 2.89029C14.3415 2.35447 13.6148 2.05345 12.857 2.05345H9.48557C8.81312 2.04122 8.1579 2.26661 7.63527 2.68994C7.11264 3.11327 6.75611 3.7074 6.62843 4.36774L1.57129 30.6249" stroke="#121A1F" stroke-width="1.5" stroke-linecap="round" stroke-linejoin="round"/>
<path d="M12.8569 16.3391H27.1426" stroke="#121A1F" stroke-width="1.5" stroke-linecap="round" stroke-linejoin="round"/>
<path d="M15.7141 23.4819V32.0534" stroke="#121A1F" stroke-width="1.5" stroke-linecap="round" stroke-linejoin="round"/>
<path d="M31.4285 39.1964C35.3734 39.1964 38.5714 35.9984 38.5714 32.0535C38.5714 28.1086 35.3734 24.9106 31.4285 24.9106C27.4836 24.9106 24.2856 28.1086 24.2856 32.0535C24.2856 35.9984 27.4836 39.1964 31.4285 39.1964Z" stroke="#121A1F" stroke-width="1.5" stroke-linecap="round" stroke-linejoin="round"/>
<path d="M24.2856 9.19631V4.91059C24.2856 4.15283 24.5867 3.42611 25.1225 2.89029C25.6583 2.35447 26.385 2.05345 27.1428 2.05345H30.5142C31.1867 2.04122 31.8419 2.26661 32.3645 2.68994C32.8871 3.11327 33.2437 3.7074 33.3714 4.36774L38.4856 30.6249" stroke="#121A1F" stroke-width="1.5" stroke-linecap="round" stroke-linejoin="round"/>
<path d="M24.2856 23.4819V32.0534" stroke="#121A1F" stroke-width="1.5" stroke-linecap="round" stroke-linejoin="round"/>
</svg>
