<svg width="40" height="41" viewBox="0 0 40 41" fill="none" xmlns="http://www.w3.org/2000/svg">
<path d="M21.3428 20.3388C20.9191 20.5228 20.462 20.6178 20 20.6178C19.538 20.6178 19.0809 20.5228 18.6571 20.3388L2.3714 12.7959C2.10695 12.6625 1.88471 12.4584 1.72943 12.2061C1.57416 11.9539 1.49194 11.6635 1.49194 11.3674C1.49194 11.0712 1.57416 10.7808 1.72943 10.5286C1.88471 10.2763 2.10695 10.0722 2.3714 9.93879L18.6571 2.33879C19.0809 2.15477 19.538 2.05981 20 2.05981C20.462 2.05981 20.9191 2.15477 21.3428 2.33879L37.6285 9.88165C37.893 10.015 38.1152 10.2192 38.2705 10.4714C38.4258 10.7237 38.508 11.014 38.508 11.3102C38.508 11.6064 38.4258 11.8968 38.2705 12.149C38.1152 12.4012 37.893 12.6054 37.6285 12.7388L21.3428 20.3388Z" stroke="#121A1F" stroke-width="1.5" stroke-linecap="round" stroke-linejoin="round"/>
<path d="M38.5713 21.625L21.1428 29.6536C20.7705 29.8234 20.3662 29.9112 19.957 29.9112C19.5479 29.9112 19.1436 29.8234 18.7713 29.6536L1.42847 21.625" stroke="#121A1F" stroke-width="1.5" stroke-linecap="round" stroke-linejoin="round"/>
<path d="M38.5713 30.9114L21.1428 38.9399C20.7705 39.1097 20.3662 39.1976 19.957 39.1976C19.5479 39.1976 19.1436 39.1097 18.7713 38.9399L1.42847 30.9114" stroke="#121A1F" stroke-width="1.5" stroke-linecap="round" stroke-linejoin="round"/>
</svg>
