<svg width="26" height="26" viewBox="0 0 26 26" fill="none" xmlns="http://www.w3.org/2000/svg">
<g clip-path="url(#clip0_322_500)">
<path d="M13.8393 12.8208C13.5744 12.9359 13.2888 12.9952 13 12.9952C12.7113 12.9952 12.4256 12.9359 12.1607 12.8208L1.98216 8.10656C1.81687 8.02319 1.67797 7.89558 1.58093 7.73794C1.48388 7.5803 1.4325 7.39882 1.4325 7.2137C1.4325 7.02858 1.48388 6.8471 1.58093 6.68946C1.67797 6.53182 1.81687 6.40421 1.98216 6.32084L12.1607 1.57084C12.4256 1.45583 12.7113 1.39648 13 1.39648C13.2888 1.39648 13.5744 1.45583 13.8393 1.57084L24.0179 6.28513C24.1832 6.3685 24.3221 6.4961 24.4191 6.65374C24.5161 6.81139 24.5675 6.99287 24.5675 7.17799C24.5675 7.3631 24.5161 7.54459 24.4191 7.70223C24.3221 7.85987 24.1832 7.98748 24.0179 8.07084L13.8393 12.8208Z" stroke="white" stroke-width="1.5" stroke-linecap="round" stroke-linejoin="round"/>
<path d="M24.6072 13.625L13.7143 18.6429C13.4817 18.749 13.2289 18.8039 12.9732 18.8039C12.7175 18.8039 12.4648 18.749 12.2322 18.6429L1.39288 13.625" stroke="white" stroke-width="1.5" stroke-linecap="round" stroke-linejoin="round"/>
<path d="M24.6072 19.4277L13.7143 24.4456C13.4817 24.5517 13.2289 24.6066 12.9732 24.6066C12.7175 24.6066 12.4648 24.5517 12.2322 24.4456L1.39288 19.4277" stroke="white" stroke-width="1.5" stroke-linecap="round" stroke-linejoin="round"/>
</g>
<defs>
<clipPath id="clip0_322_500">
<rect width="25" height="25" fill="white" transform="translate(0.5 0.5)"/>
</clipPath>
</defs>
</svg>
