<svg width="40" height="41" viewBox="0 0 40 41" fill="none" xmlns="http://www.w3.org/2000/svg">
<g clip-path="url(#clip0_322_374)">
<path d="M21.3429 19.9333C20.9191 20.1173 20.462 20.2122 20 20.2122C19.538 20.2122 19.0809 20.1173 18.6571 19.9333L2.37143 12.3904C2.10698 12.257 1.88474 12.0529 1.72946 11.8006C1.57419 11.5484 1.49197 11.258 1.49197 10.9618C1.49197 10.6657 1.57419 10.3753 1.72946 10.1231C1.88474 9.87083 2.10698 9.66666 2.37143 9.53327L18.6571 1.93327C19.0809 1.74925 19.538 1.6543 20 1.6543C20.462 1.6543 20.9191 1.74925 21.3429 1.93327L37.6286 9.47613C37.893 9.60951 38.1153 9.81369 38.2705 10.0659C38.4258 10.3181 38.508 10.6085 38.508 10.9047C38.508 11.2009 38.4258 11.4913 38.2705 11.7435C38.1153 11.9957 37.893 12.1999 37.6286 12.3333L21.3429 19.9333Z" stroke="#FFE47A" stroke-width="1.5" stroke-linecap="round" stroke-linejoin="round"/>
<path d="M38.5714 21.2188L21.1428 29.2473C20.7706 29.4171 20.3663 29.505 19.9571 29.505C19.548 29.505 19.1436 29.4171 18.7714 29.2473L1.42856 21.2188" stroke="#FFE47A" stroke-width="1.5" stroke-linecap="round" stroke-linejoin="round"/>
<path d="M38.5714 30.5039L21.1428 38.5325C20.7706 38.7023 20.3663 38.7901 19.9571 38.7901C19.548 38.7901 19.1436 38.7023 18.7714 38.5325L1.42856 30.5039" stroke="#FFE47A" stroke-width="1.5" stroke-linecap="round" stroke-linejoin="round"/>
</g>
<defs>
<clipPath id="clip0_322_374">
<rect width="40" height="40" fill="white" transform="translate(0 0.21875)"/>
</clipPath>
</defs>
</svg>
