<svg width="21" height="21" viewBox="0 0 21 21" fill="none" xmlns="http://www.w3.org/2000/svg">
<g clip-path="url(#clip0_322_663)">
<path d="M10.7051 20.041C16.2184 20.041 20.7051 15.5543 20.7051 10.041C20.7051 4.52769 16.2185 0.0410156 10.7051 0.0410156C5.1917 0.0410156 0.705078 4.52769 0.705078 10.041C0.705078 15.5543 5.19175 20.041 10.7051 20.041ZM10.7051 1.37433C15.4851 1.37433 19.3718 5.26098 19.3718 10.041C19.3718 14.8211 15.4851 18.7077 10.7051 18.7077C5.92504 18.7077 2.03839 14.8211 2.03839 10.041C2.03839 5.26098 5.9251 1.37433 10.7051 1.37433Z" fill="#FFE47A"/>
<path d="M13.6204 13.2277C13.7438 13.3277 13.8904 13.3744 14.0371 13.3744C14.2338 13.3744 14.4271 13.2877 14.5571 13.1244C14.7871 12.8377 14.7404 12.4177 14.4538 12.1877L11.3704 9.721V4.70767C11.3704 4.341 11.0704 4.04102 10.7038 4.04102C10.3371 4.04102 10.0371 4.341 10.0371 4.70767V10.041C10.0371 10.2444 10.1305 10.4344 10.2871 10.561L13.6204 13.2277Z" fill="#FFE47A"/>
</g>
<defs>
<clipPath id="clip0_322_663">
<rect width="20" height="20" fill="white" transform="translate(0.705078 0.0410156)"/>
</clipPath>
</defs>
</svg>
