<svg width="30" height="30" viewBox="0 0 30 30" fill="none" xmlns="http://www.w3.org/2000/svg">
<g clip-path="url(#clip0_536_926)">
<path d="M18.772 27.859C20.0916 28.7104 21.6641 29.0814 23.2251 28.9096C24.7861 28.7379 26.2404 28.034 27.3434 26.9162L28.3077 25.9733C28.7304 25.5409 28.9671 24.9602 28.9671 24.3554C28.9671 23.7507 28.7304 23.17 28.3077 22.7376L24.2148 18.6876C23.786 18.2662 23.2089 18.0301 22.6077 18.0301C22.0065 18.0301 21.4293 18.2662 21.0005 18.6876V18.6876C20.5681 19.1103 19.9874 19.347 19.3827 19.347C18.7779 19.347 18.1972 19.1103 17.7648 18.6876L11.3362 12.259C11.1218 12.0477 10.9515 11.7958 10.8353 11.5181C10.719 11.2403 10.6592 10.9422 10.6592 10.6412C10.6592 10.3401 10.719 10.042 10.8353 9.76424C10.9515 9.4865 11.1218 9.23463 11.3362 9.0233V9.0233C11.7576 8.59451 11.9938 8.01736 11.9938 7.41615C11.9938 6.81495 11.7576 6.2378 11.3362 5.80901L7.26482 1.73758C6.8324 1.31483 6.25169 1.07812 5.64696 1.07812C5.04223 1.07812 4.46152 1.31483 4.0291 1.73758L3.08625 2.70187C1.96842 3.80489 1.26446 5.25916 1.09275 6.82016C0.921044 8.38115 1.29205 9.95367 2.14339 11.2733C6.5792 17.8106 12.2233 23.4401 18.772 27.859V27.859Z" stroke="#121A1F" stroke-width="1.5" stroke-linecap="round" stroke-linejoin="round"/>
</g>
<defs>
<clipPath id="clip0_536_926">
<rect width="30" height="30" fill="white"/>
</clipPath>
</defs>
</svg>
