<svg width="40" height="40" viewBox="0 0 40 40" fill="none" xmlns="http://www.w3.org/2000/svg">
<path d="M24.2857 14.2861C25.8637 14.2861 27.1429 13.0069 27.1429 11.4289C27.1429 9.85096 25.8637 8.57178 24.2857 8.57178C22.7078 8.57178 21.4286 9.85096 21.4286 11.4289C21.4286 13.0069 22.7078 14.2861 24.2857 14.2861Z" stroke="#FFE47A" stroke-width="1.5" stroke-linecap="round" stroke-linejoin="round"/>
<path d="M12.8572 28.5715C13.6461 28.5715 14.2857 27.9319 14.2857 27.1429C14.2857 26.3539 13.6461 25.7144 12.8572 25.7144C12.0682 25.7144 11.4286 26.3539 11.4286 27.1429C11.4286 27.9319 12.0682 28.5715 12.8572 28.5715Z" stroke="#FFE47A" stroke-width="1.5" stroke-linecap="round" stroke-linejoin="round"/>
<path d="M12.8571 18.5717C14.4351 18.5717 15.7143 17.2925 15.7143 15.7146C15.7143 14.1366 14.4351 12.8574 12.8571 12.8574C11.2792 12.8574 10 14.1366 10 15.7146C10 17.2925 11.2792 18.5717 12.8571 18.5717Z" stroke="#FFE47A" stroke-width="1.5" stroke-linecap="round" stroke-linejoin="round"/>
<path d="M27.2 35.0859C27.1682 34.5317 26.9756 33.9987 26.6458 33.5522C26.316 33.1057 25.8632 32.7649 25.3429 32.5716C24.0506 32.1468 22.9522 31.275 22.2452 30.1129C21.5382 28.9508 21.269 27.5746 21.4859 26.2317C21.7029 24.8888 22.3917 23.6674 23.4287 22.787C24.4656 21.9066 25.7826 21.425 27.1429 21.4287H32.4857C33.4021 21.4313 34.3056 21.2134 35.1201 20.7935C35.9346 20.3736 36.6362 19.7639 37.1657 19.016C37.6951 18.268 38.0369 17.4037 38.1622 16.4959C38.2875 15.5882 38.1927 14.6636 37.8857 13.8001C36.7493 10.5915 34.7529 7.75687 32.1146 5.60599C29.4763 3.45512 26.2976 2.07072 22.9258 1.60407C19.554 1.13741 16.1188 1.60644 12.9955 2.95991C9.87215 4.31339 7.18091 6.49924 5.21577 9.27865C3.25063 12.0581 2.08718 15.3241 1.85253 18.72C1.61789 22.1158 2.32108 25.5109 3.88527 28.5341C5.44946 31.5574 7.81449 34.0926 10.722 35.8628C13.6294 37.633 16.9675 38.57 20.3714 38.5716C22.0525 38.5763 23.7259 38.3455 25.3429 37.8859C25.9368 37.7194 26.4511 37.3451 26.792 36.8311C27.1329 36.3171 27.2777 35.6977 27.2 35.0859V35.0859Z" stroke="#FFE47A" stroke-width="1.5" stroke-linecap="round" stroke-linejoin="round"/>
</svg>
