<svg width="26" height="26" viewBox="0 0 26 26" fill="none" xmlns="http://www.w3.org/2000/svg">
<g clip-path="url(#clip0_322_780)">
<path d="M16.1428 23.5733C17.2425 24.2827 18.5529 24.5919 19.8538 24.4488C21.1546 24.3057 22.3665 23.7191 23.2857 22.7876L24.0892 22.0018C24.4415 21.6415 24.6388 21.1576 24.6388 20.6536C24.6388 20.1497 24.4415 19.6658 24.0892 19.3054L20.6785 15.9304C20.3212 15.5792 19.8402 15.3825 19.3392 15.3825C18.8382 15.3825 18.3573 15.5792 18 15.9304V15.9304C17.6396 16.2827 17.1557 16.48 16.6517 16.48C16.1478 16.48 15.6639 16.2827 15.3035 15.9304L9.94638 10.5733C9.76767 10.3972 9.62576 10.1873 9.52889 9.95581C9.43203 9.72436 9.38215 9.47596 9.38215 9.22505C9.38215 8.97415 9.43203 8.72574 9.52889 8.49429C9.62576 8.26284 9.76767 8.05295 9.94638 7.87684V7.87684C10.2976 7.51951 10.4943 7.03855 10.4943 6.53755C10.4943 6.03655 10.2976 5.55559 9.94638 5.19826L6.55353 1.80541C6.19318 1.45311 5.70926 1.25586 5.20531 1.25586C4.70137 1.25586 4.21744 1.45311 3.8571 1.80541L3.07138 2.60898C2.13986 3.52816 1.55323 4.74005 1.41014 6.04088C1.26705 7.34172 1.57622 8.65215 2.28567 9.75184C5.98218 15.1996 10.6856 19.8908 16.1428 23.5733V23.5733Z" stroke="white" stroke-width="1.5" stroke-linecap="round" stroke-linejoin="round"/>
</g>
<defs>
<clipPath id="clip0_322_780">
<rect width="25" height="25" fill="white" transform="translate(0.5 0.359375)"/>
</clipPath>
</defs>
</svg>
