<svg width="40" height="40" viewBox="0 0 40 40" fill="none" xmlns="http://www.w3.org/2000/svg">
<path d="M3.54291 18.686L36.4001 3.74316" stroke="#FFE47A" stroke-width="1.5" stroke-linecap="round" stroke-linejoin="round"/>
<path d="M30.2571 1.42871L36.4 3.743L34.1143 9.88585" stroke="#FFE47A" stroke-width="1.5" stroke-linecap="round" stroke-linejoin="round"/>
<path d="M37.8572 38.6006H30.7143L30.7143 18.6006C30.7143 18.2217 30.8648 17.8583 31.1327 17.5904C31.4006 17.3225 31.764 17.172 32.1429 17.172H36.4286C36.8075 17.172 37.1709 17.3225 37.4388 17.5904C37.7067 17.8583 37.8572 18.2217 37.8572 18.6006V38.6006Z" stroke="#FFE47A" stroke-width="1.5" stroke-linecap="round" stroke-linejoin="round"/>
<path d="M23.5715 38.6006H16.4286V22.8863C16.4286 22.5074 16.5791 22.1441 16.847 21.8761C17.1149 21.6082 17.4783 21.4577 17.8572 21.4577H22.1429C22.5218 21.4577 22.8851 21.6082 23.1531 21.8761C23.421 22.1441 23.5715 22.5074 23.5715 22.8863L23.5715 38.6006Z" stroke="#FFE47A" stroke-width="1.5" stroke-linecap="round" stroke-linejoin="round"/>
<path d="M9.28577 38.6006H2.14291L2.14291 27.172C2.14291 26.7931 2.29342 26.4298 2.56133 26.1619C2.82924 25.894 3.1926 25.7434 3.57148 25.7434H7.8572C8.23608 25.7434 8.59944 25.894 8.86735 26.1619C9.13526 26.4298 9.28577 26.7931 9.28577 27.172L9.28577 38.6006Z" stroke="#FFE47A" stroke-width="1.5" stroke-linecap="round" stroke-linejoin="round"/>
</svg>
