<svg width="50" height="50" viewBox="0 0 50 50" fill="none" xmlns="http://www.w3.org/2000/svg">
<circle cx="25" cy="25" r="25" fill="url(#paint0_linear_322_1099)"/>
<path d="M22.2869 22.461C22.287 23.957 23.5041 25.1741 25 25.1741C25.7247 25.1741 26.4061 24.8918 26.9184 24.3794C27.4309 23.867 27.7131 23.1857 27.7131 22.461C27.7131 20.965 26.4961 19.748 25 19.748C23.504 19.748 22.2869 20.965 22.2869 22.461ZM23.8965 22.461C23.8965 21.8525 24.3916 21.3575 25 21.3575C25.6085 21.3575 26.1036 21.8525 26.1036 22.461C26.1036 22.7557 25.9887 23.0329 25.7804 23.2413C25.5719 23.4497 25.2947 23.5645 25 23.5644C24.3916 23.5644 23.8965 23.0695 23.8965 22.461Z" fill="#121A1F"/>
<path d="M24.4628 10.2055C24.4621 10.2063 24.4586 10.2092 24.4576 10.2102C24.3401 10.3162 22.8049 11.7193 21.2591 14.0172C20.332 15.3953 19.5922 16.813 19.0605 18.231C18.6258 19.3899 18.3302 20.5509 18.1756 21.7009C16.7285 22.0437 15.5048 22.4973 14.6146 23.023C13.0902 23.9235 12.7702 24.899 12.7702 25.5588C12.7702 26.5379 13.4466 27.9288 16.6686 28.9942C17.1029 29.1378 17.5644 29.2688 18.0488 29.3866V31.9C18.0488 32.3444 18.4092 32.7048 18.8537 32.7048H21.8588C21.9254 34.0137 22.1532 35.2853 22.5285 36.4227C22.9793 37.7886 23.6339 38.9409 24.4216 39.755C24.5732 39.9116 24.7819 40 24.9999 40C25.218 40 25.4267 39.9116 25.5783 39.755C26.366 38.9409 27.0207 37.7886 27.4715 36.4227C27.8468 35.2853 28.0746 34.0137 28.1412 32.7048H31.1463C31.5909 32.7048 31.9511 32.3444 31.9511 31.9V29.3866C32.4356 29.2688 32.8972 29.1378 33.3315 28.9942C36.5534 27.9288 37.2298 26.5379 37.2298 25.5588C37.2298 24.899 36.9097 23.9235 35.3854 23.023C34.4952 22.4973 33.2716 22.0437 31.8245 21.7009C31.6698 20.5509 31.3742 19.3899 30.9395 18.231C30.4078 16.813 29.668 15.3953 28.741 14.0172C27.1665 11.6768 25.603 10.2644 25.5372 10.2055C25.3836 10.0677 25.1917 10 25.0004 10C24.8071 10 24.6145 10.0692 24.4628 10.2055ZM25.0004 11.9328C25.5419 12.4929 26.4223 13.4766 27.3138 14.7806H22.6864C23.5748 13.4813 24.4577 12.4948 25.0004 11.9328ZM19.6585 25.855V23.5675C19.6585 20.8033 20.6307 18.2989 21.6905 16.3901H28.3094C29.3716 18.3027 30.3416 20.8056 30.3416 23.5675V25.855C30.3416 26.2995 30.7019 26.6599 31.1463 26.6599C31.5909 26.6599 31.9511 26.2995 31.9511 25.855V23.5675C31.9511 23.5089 31.9504 23.4502 31.9499 23.3914C33.0185 23.6756 33.9116 24.022 34.5667 24.4089C35.2362 24.8043 35.6202 25.2234 35.6202 25.5588C35.6202 26.0482 34.7562 26.8278 32.8261 27.466C30.7476 28.1534 27.9682 28.5318 25 28.5318C22.0318 28.5318 19.2525 28.1534 17.174 27.466C15.2439 26.8278 14.3799 26.0482 14.3799 25.5588C14.3799 25.2234 14.7638 24.8043 15.4333 24.4089C16.0883 24.022 16.9815 23.6756 18.0501 23.3915C18.0493 23.4502 18.0488 23.5089 18.0488 23.5675V25.855C18.0488 26.2995 18.4092 26.6599 18.8537 26.6599C19.2981 26.6599 19.6585 26.2995 19.6585 25.855ZM30.3416 29.7163V31.0952H19.6585V29.7163C21.2965 29.9942 23.1162 30.1415 25 30.1415C26.8838 30.1415 28.7034 29.9942 30.3416 29.7163ZM23.4704 32.7048H26.5296C26.4139 34.7555 25.86 36.6317 24.9999 37.9134C24.1401 36.6317 23.5862 34.7555 23.4704 32.7048Z" fill="#121A1F"/>
<defs>
<linearGradient id="paint0_linear_322_1099" x1="0" y1="25" x2="50" y2="25" gradientUnits="userSpaceOnUse">
<stop stop-color="#3D7EAA"/>
<stop offset="1" stop-color="#FFE47A"/>
</linearGradient>
</defs>
</svg>
