<svg width="101" height="101" viewBox="0 0 101 101" fill="none" xmlns="http://www.w3.org/2000/svg">
<path d="M55.8549 10.152C55.0848 10.0557 54.4286 9.8459 53.8864 9.52266C53.3452 9.19156 52.913 8.78631 52.5899 8.3069C52.2746 7.82849 52.0595 7.31472 51.9447 6.7656C51.8298 6.21647 51.8053 5.67866 51.8712 5.15215L51.9036 4.89283C51.9715 4.3506 52.1282 3.83147 52.3738 3.33544C52.6195 2.8394 52.9496 2.40182 53.3642 2.0227C53.7866 1.64456 54.2847 1.36368 54.8584 1.18005C55.44 0.997411 56.0883 0.950825 56.8034 1.0403C57.5814 1.13763 58.2508 1.36904 58.8117 1.73452C59.3736 2.09215 59.8033 2.54897 60.1009 3.10499C60.3994 3.65315 60.5344 4.26465 60.5059 4.93949L58.5727 4.69762C58.5648 4.37739 58.4735 4.08661 58.2987 3.8253C58.1317 3.56497 57.8994 3.34835 57.6018 3.17543C57.312 3.00349 56.9707 2.89294 56.5778 2.84378C56.2006 2.79659 55.8543 2.82111 55.539 2.91734C55.2315 3.01455 54.9564 3.17169 54.7137 3.38875C54.4789 3.60679 54.2854 3.87789 54.1331 4.20203C53.9896 4.5193 53.8928 4.87832 53.8427 5.27909C53.7906 5.69559 53.7979 6.0836 53.8647 6.44313C53.9403 6.79578 54.0723 7.11161 54.2609 7.39061C54.4505 7.66174 54.698 7.88426 55.0035 8.05817C55.3168 8.23305 55.6739 8.34557 56.0747 8.39571C56.6091 8.46257 57.0865 8.41056 57.5069 8.23969C57.9274 8.06881 58.2467 7.81345 58.4648 7.4736L58.0638 8.7643L58.3205 6.71328L60.1004 6.93598L59.8704 8.77482C59.4263 9.32585 58.858 9.72165 58.1654 9.96223C57.4817 10.1959 56.7115 10.2592 55.8549 10.152ZM56.0218 6.80879L56.1958 5.41787L60.9345 6.01074L60.7605 7.40166L56.0218 6.80879Z" fill="white"/>
<path d="M64.5671 12.262C64.0448 12.076 63.6141 11.8218 63.2749 11.4994C62.9432 11.1795 62.6962 10.8226 62.5339 10.4285C62.3816 10.0297 62.301 9.61848 62.2921 9.19497C62.2932 8.76665 62.3642 8.35478 62.505 7.95935L62.5846 7.73552C62.7307 7.32517 62.9373 6.95738 63.2044 6.63214C63.4817 6.3021 63.804 6.03434 64.1713 5.82886C64.5387 5.62339 64.9469 5.5039 65.396 5.47042C65.8552 5.43212 66.3347 5.50195 66.8346 5.67991C67.4912 5.91364 67.9902 6.2594 68.3316 6.7172C68.6832 7.17019 68.8933 7.67794 68.9621 8.24043C69.0335 8.79546 68.9696 9.35276 68.7704 9.91233L68.5553 10.5167L63.1273 8.58441L63.4899 7.56599L67.8322 9.1118L67.0829 9.37467C67.2131 9.00908 67.2724 8.67713 67.2609 8.37881C67.2494 8.0805 67.1631 7.827 67.002 7.61834C66.851 7.40487 66.6226 7.24369 66.3167 7.13479C66.0033 7.02324 65.7132 6.99982 65.4464 7.06456C65.1796 7.12929 64.941 7.27976 64.7308 7.51598C64.5233 7.74473 64.3492 8.05682 64.2084 8.45225C64.0782 8.81784 64.0162 9.15725 64.0224 9.47049C64.0313 9.77627 64.121 10.0436 64.2917 10.2725C64.4625 10.5014 64.7269 10.6796 65.085 10.8071C65.4133 10.924 65.7045 10.9562 65.9585 10.9037C66.2126 10.8512 66.4101 10.745 66.5512 10.585L68.1963 11.1707C67.9607 11.5492 67.6552 11.8523 67.2799 12.0802C66.9045 12.3081 66.4873 12.4411 66.0281 12.4794C65.5689 12.5177 65.0819 12.4452 64.5671 12.262Z" fill="white"/>
<path d="M71.4255 15.3035C70.8482 14.9892 70.4201 14.6659 70.1411 14.3336C69.8659 13.9944 69.7358 13.6124 69.7507 13.1877C69.7763 12.7597 69.9463 12.2571 70.2606 11.6799L72.999 6.65122L74.5535 7.49771L71.7811 12.5889C71.6334 12.8602 71.5893 13.1067 71.6489 13.3285C71.7192 13.5472 71.8865 13.7285 72.1508 13.8724L72.9959 14.3326L72.2289 15.741L71.4255 15.3035ZM70.6275 8.94439L71.2922 7.72375L75.382 9.95076L74.7173 11.1714L70.6275 8.94439Z" fill="white"/>
<path d="M78.0627 20.3487C77.4805 19.8236 77.0717 19.2895 76.8363 18.7464C76.6062 18.1975 76.5314 17.6715 76.6121 17.1683C76.698 16.6592 76.9293 16.1959 77.306 15.7784L78.7085 17.0436C78.5599 17.2082 78.4661 17.4009 78.427 17.6216C78.3938 17.8476 78.4315 18.0896 78.5401 18.3476C78.654 18.5996 78.8609 18.8609 79.1608 19.1315C79.4313 19.3755 79.6895 19.5445 79.9355 19.6383C80.1814 19.7322 80.4072 19.7599 80.6127 19.7212C80.8235 19.6768 81.0031 19.5722 81.1517 19.4075C81.3373 19.2017 81.395 18.9604 81.3247 18.6837C81.2597 18.401 81.0461 18.0644 80.6839 17.6737L80.2386 17.1919C79.6453 16.5608 79.3141 15.8993 79.2448 15.2076C79.1756 14.5158 79.3983 13.8847 79.9128 13.3143C80.2842 12.9027 80.7021 12.6345 81.1668 12.5096C81.6372 12.3901 82.1205 12.4101 82.6166 12.5696C83.118 12.7232 83.6097 13.0176 84.092 13.4525C84.5977 13.9088 84.9503 14.3869 85.1499 14.8869C85.3606 15.3863 85.4198 15.8823 85.3274 16.3749C85.2403 16.8616 85.0058 17.3167 84.6238 17.7401L83.2125 16.4669C83.3557 16.3082 83.4475 16.1296 83.4877 15.9313C83.5333 15.7271 83.5168 15.5148 83.4381 15.2946C83.3654 15.0796 83.2173 14.8714 82.9938 14.6698C82.7821 14.4788 82.5709 14.3523 82.3603 14.2902C82.1555 14.2335 81.9621 14.235 81.7801 14.2949C81.6035 14.3488 81.4515 14.4464 81.3242 14.5875C81.1597 14.7698 81.0812 14.9869 81.0885 15.2389C81.0959 15.4908 81.236 15.7612 81.5088 16.0499L81.963 16.5396C82.3963 17.0052 82.718 17.4821 82.9282 17.9703C83.1437 18.4527 83.2241 18.9252 83.1694 19.3878C83.1258 19.8498 82.9237 20.2808 82.563 20.6807C82.1916 21.0923 81.7566 21.3558 81.2579 21.4712C80.7703 21.586 80.2526 21.551 79.7048 21.3661C79.1569 21.1812 78.6096 20.8421 78.0627 20.3487Z" fill="white"/>
<path d="M83.7663 26.3623C83.3577 25.8474 83.0899 25.3825 82.963 24.9676C82.8422 24.5479 82.8717 24.1454 83.0513 23.7602C83.2421 23.3763 83.595 22.9801 84.1099 22.5715L88.5955 19.0126L89.6957 20.3992L85.1543 24.0024C84.9123 24.1944 84.7754 24.4041 84.7436 24.6316C84.7229 24.8603 84.806 25.0926 84.9931 25.3283L85.5912 26.0821L84.3348 27.0789L83.7663 26.3623ZM85.5165 20.1969L86.6053 19.333L89.4998 22.981L88.411 23.8449L85.5165 20.1969Z" fill="white"/>
<path d="M87.193 31.6291L88.8621 30.671L88.7024 30.3929L90.5158 29.3521C90.8042 29.1865 90.9812 28.9936 91.0466 28.7734C91.112 28.5533 91.0579 28.2921 90.8845 27.9899C90.7977 27.8388 90.68 27.6416 90.5312 27.3982C90.3824 27.1549 90.2262 26.9067 90.0626 26.6536C89.8991 26.4004 89.7493 26.1714 89.6134 25.9663L91.0043 25.168C91.1087 25.3181 91.2289 25.4956 91.3648 25.7007C91.5008 25.9057 91.6373 26.1196 91.7742 26.3423C91.9112 26.565 92.0369 26.776 92.1512 26.9752C92.4824 27.5521 92.6779 28.0837 92.7378 28.5698C92.8016 29.0628 92.7243 29.5089 92.5061 29.9081C92.2946 30.3034 91.9279 30.6509 91.4059 30.9505L87.9441 32.9375L87.193 31.6291ZM86.0138 29.9089C85.7812 29.5036 85.6483 29.1051 85.6152 28.7132C85.5859 28.3282 85.656 27.9729 85.8253 27.6475C86.0015 27.3181 86.2785 27.0449 86.6562 26.8281C87.0684 26.5915 87.466 26.5048 87.8493 26.5679C88.2394 26.6271 88.6066 26.8135 88.951 27.1272C89.3023 27.4369 89.6219 27.8425 89.9097 28.3439L90.6016 29.5493L89.6846 30.0757L88.9868 28.8599C88.8212 28.5714 88.621 28.3896 88.386 28.3144C88.1619 28.2422 87.9297 28.275 87.6893 28.413C87.4626 28.5431 87.3205 28.7251 87.263 28.959C87.2163 29.1958 87.2758 29.4585 87.4413 29.747C87.5478 29.9324 87.6733 30.0795 87.8179 30.1883C87.9734 30.3 88.1577 30.3586 88.3708 30.364C88.584 30.3695 88.8353 30.2983 89.1248 30.1504L88.9374 30.7785C88.5262 30.9688 88.1413 31.0619 87.7828 31.0577C87.4282 31.0603 87.0999 30.9657 86.7979 30.7737C86.4999 30.5887 86.2386 30.3004 86.0138 29.9089Z" fill="white"/>
<path d="M88.5843 34.4932L94.6517 32.1337L95.1986 33.5398L92.5967 34.5516L92.5838 34.5184C93.44 34.1854 94.1709 34.1093 94.7766 34.2902C95.3852 34.4784 95.8243 34.9194 96.0942 35.6132L96.1846 35.8457L94.6567 36.4399L94.4844 35.997C94.295 35.5099 94.0157 35.1851 93.6467 35.0227C93.285 34.8575 92.8569 34.871 92.3623 35.0633L89.2733 36.2646L88.5843 34.4932Z" fill="white"/>
<path d="M90.9958 42.3052C90.8374 41.6672 90.7863 41.1332 90.8426 40.703C90.9067 40.2709 91.1002 39.9168 91.4234 39.6407C91.7561 39.3704 92.2414 39.156 92.8793 38.9975L98.4364 37.6171L98.8632 39.3349L93.2369 40.7325C92.9371 40.807 92.7257 40.9411 92.6024 41.1349C92.4888 41.3345 92.4683 41.5803 92.5408 41.8724L92.7728 42.8063L91.2164 43.1929L90.9958 42.3052ZM95.1435 37.4191L96.4924 37.084L97.6151 41.6034L96.2662 41.9385L95.1435 37.4191Z" fill="white"/>
<path d="M91.6102 47.559C91.5613 47.0068 91.6126 46.5093 91.7642 46.0666C91.9165 45.6317 92.1378 45.2583 92.4282 44.9463C92.7272 44.6416 93.0673 44.3968 93.4484 44.2119C93.8382 44.0343 94.2421 43.927 94.6602 43.8899L94.8969 43.8689C95.3308 43.8305 95.7512 43.8648 96.1583 43.9719C96.5739 44.0861 96.9517 44.2673 97.2917 44.5155C97.6317 44.7636 97.9106 45.0847 98.1284 45.4789C98.3548 45.8802 98.4914 46.3451 98.5382 46.8737C98.5997 47.5679 98.4937 48.1656 98.22 48.6669C97.955 49.1754 97.5812 49.5782 97.0987 49.8754C96.6241 50.1718 96.0909 50.3463 95.4993 50.3987L94.8603 50.4553L94.3518 44.7163L95.4286 44.6209L95.8354 49.2121L95.2839 48.6408C95.6704 48.6066 95.9969 48.522 96.2632 48.3871C96.5295 48.2522 96.7239 48.068 96.8463 47.8345C96.9774 47.6083 97.0285 47.3334 96.9999 47.01C96.9705 46.6786 96.8708 46.4052 96.7006 46.1897C96.5305 45.9742 96.2942 45.8203 95.9918 45.7278C95.6973 45.6346 95.341 45.6066 94.9229 45.6436C94.5364 45.6778 94.2021 45.7631 93.9199 45.8994C93.6457 46.035 93.4402 46.2281 93.3034 46.4788C93.1666 46.7294 93.115 47.0441 93.1485 47.4227C93.1793 47.7698 93.2715 48.0479 93.4252 48.2569C93.5788 48.4659 93.7578 48.6011 93.962 48.6625L94.1161 50.402C93.6738 50.3457 93.2709 50.1946 92.9072 49.9486C92.5435 49.7025 92.2485 49.3788 92.0221 48.9775C91.7957 48.5762 91.6584 48.1033 91.6102 47.559Z" fill="white"/>
<path d="M91.5869 54.9244C91.6358 54.4677 91.7631 54.0592 91.9689 53.6989C92.1739 53.3465 92.4368 53.048 92.7577 52.8036C93.0864 52.56 93.4596 52.3849 93.8773 52.2783C94.294 52.1795 94.7347 52.155 95.1994 52.2047L95.471 52.2338C95.9356 52.2835 96.3616 52.3968 96.7489 52.5736C97.1353 52.7584 97.4643 52.9967 97.7357 53.2885C98.0142 53.5891 98.2163 53.9334 98.342 54.3212C98.4757 54.7098 98.5181 55.1325 98.4692 55.5892C98.4136 56.1089 98.2513 56.5456 97.9825 56.8991C97.7216 57.2535 97.3592 57.5134 96.8955 57.6788C96.4396 57.8451 95.8915 57.9059 95.2511 57.8613L95.7649 57.4145L100.206 57.8898L100.003 59.7915L91.3798 58.8687L91.5404 57.3686L94.2217 57.6555L94.1939 57.9154C93.5822 57.826 93.0724 57.6401 92.6646 57.3575C92.2559 57.0828 91.9585 56.7363 91.7722 56.3182C91.5939 55.9008 91.5321 55.4362 91.5869 54.9244ZM93.1192 55.5663C93.088 55.8576 93.1227 56.1282 93.2235 56.3779C93.3312 56.6363 93.5035 56.8499 93.7403 57.0186C93.9763 57.1952 94.2715 57.3024 94.6258 57.3404L95.0629 57.3871C95.4094 57.4242 95.7088 57.3806 95.961 57.2563C96.2133 57.1319 96.4155 56.9544 96.5676 56.7238C96.7197 56.4932 96.8109 56.2361 96.8413 55.9526C96.875 55.6376 96.8226 55.3453 96.6842 55.0756C96.5529 54.8147 96.353 54.5981 96.0847 54.4261C95.8242 54.2548 95.509 54.1494 95.1388 54.1098C94.7608 54.0693 94.4265 54.1052 94.1357 54.2175C93.8449 54.3297 93.6112 54.5038 93.4346 54.7398C93.258 54.9758 93.1529 55.2513 93.1192 55.5663Z" fill="white"/>
<path d="M92.4977 69.4295L94.3736 68.2128L95.6388 68.6958L96.2268 70.853L94.7961 71.0698L94.7581 69.504L94.4917 69.4023L93.431 70.5487L92.4977 69.4295ZM97.776 69.6261L95.7853 68.6118L95.5722 67.2716L97.1444 65.6847L98.0359 66.8134L96.7074 67.6287L96.7516 67.9126L98.2707 68.2636L97.776 69.6261ZM95.2687 64.9687L95.3835 67.1996L94.3314 68.0568L92.1713 67.4865L92.6993 66.1368L94.0658 66.8873L94.288 66.7051L93.8365 65.2231L95.2687 64.9687Z" fill="white"/>
<path d="M83.4387 75.8538C83.9045 75.233 84.4122 74.7674 84.9618 74.457C85.5178 74.1513 86.0841 73.9772 86.6607 73.9345C87.2325 73.8981 87.7853 73.9662 88.3191 74.1389C88.8528 74.3116 89.332 74.5572 89.7564 74.8756L89.9655 75.0324C90.4026 75.3604 90.7756 75.754 91.0845 76.2134C91.3933 76.6727 91.6094 77.1764 91.7329 77.7245C91.8517 78.2789 91.8484 78.8507 91.7233 79.4399C91.5933 80.0354 91.3121 80.6214 90.8796 81.1979C90.4091 81.8251 89.8761 82.2915 89.2805 82.5972C88.6912 82.9076 88.0814 83.054 87.451 83.0365C86.8269 83.0238 86.229 82.8376 85.6572 82.478L86.8263 80.9195C87.1082 81.0716 87.406 81.1366 87.7196 81.1145C88.0285 81.0987 88.3318 81.0044 88.6296 80.8318C88.9227 80.6655 89.188 80.424 89.4257 80.1073C89.6538 79.8032 89.8043 79.4904 89.8772 79.1688C89.9453 78.8536 89.9454 78.5369 89.8773 78.2185C89.8044 77.9064 89.6651 77.6039 89.4592 77.3109C89.2549 77.0289 88.9912 76.7667 88.6681 76.5244C88.3323 76.2725 87.9918 76.0863 87.6465 75.9659C87.3028 75.8566 86.963 75.8146 86.6272 75.8399C86.2978 75.87 85.9818 75.9745 85.6792 76.1534C85.3719 76.3387 85.0971 76.5929 84.8547 76.916C84.5315 77.3468 84.3398 77.7871 84.2796 78.2369C84.2193 78.6868 84.2826 79.0907 84.4695 79.4486L83.5478 78.4602L85.2013 79.7006L84.1248 81.1355L82.6424 80.0234C82.3842 79.3645 82.3225 78.6747 82.4573 77.954C82.5935 77.2444 82.9207 76.5444 83.4387 75.8538ZM86.2588 77.6574L87.3801 78.4986L84.5144 82.3187L83.393 81.4775L86.2588 77.6574Z" fill="white"/>
<path d="M77.286 82.3841C77.7058 82.0219 78.1396 81.7732 78.5876 81.6377C79.0296 81.5075 79.462 81.4691 79.8848 81.5227C80.3068 81.5875 80.7041 81.7207 81.0767 81.9222C81.4485 82.1349 81.7715 82.4002 82.0457 82.718L82.2009 82.8979C82.4854 83.2277 82.703 83.5891 82.8538 83.982C83.0037 84.3861 83.0772 84.7986 83.0742 85.2195C83.0713 85.6405 82.9734 86.0544 82.7805 86.4613C82.5869 86.8794 82.2892 87.2618 81.8874 87.6084C81.3597 88.0636 80.8125 88.3265 80.2458 88.3971C79.6782 88.4788 79.1329 88.4105 78.61 88.1923C78.0921 87.9801 77.6392 87.6491 77.2512 87.1993L76.8322 86.7136L81.1947 82.9501L81.9009 83.7686L78.4108 86.7794L78.5527 85.9981C78.8062 86.292 79.0654 86.5076 79.3304 86.6451C79.5955 86.7825 79.8585 86.8328 80.1195 86.7959C80.3797 86.7701 80.6327 86.6512 80.8786 86.4391C81.1304 86.2218 81.2942 85.9812 81.3698 85.7172C81.4454 85.4533 81.4325 85.1716 81.331 84.8721C81.2347 84.5786 81.0495 84.273 80.7753 83.9552C80.5218 83.6613 80.2573 83.4397 79.982 83.2903C79.7118 83.1468 79.435 83.0927 79.1516 83.128C78.8683 83.1633 78.5827 83.3051 78.2948 83.5534C78.031 83.781 77.8591 84.0182 77.7791 84.265C77.6992 84.5118 77.6939 84.736 77.7632 84.9377L76.441 86.0784C76.2284 85.6865 76.1158 85.2711 76.1033 84.8322C76.0907 84.3933 76.1812 83.9648 76.3749 83.5467C76.5685 83.1286 76.8723 82.741 77.286 82.3841Z" fill="white"/>
<path d="M71.2572 86.8482C71.8153 86.501 72.3077 86.288 72.7344 86.2091C73.1652 86.137 73.5617 86.2121 73.9239 86.4345C74.2835 86.6678 74.6369 87.0636 74.9841 87.6217L78.0086 92.4837L76.5056 93.4186L73.4435 88.4961C73.2803 88.2338 73.0876 88.0739 72.8653 88.0164C72.6404 87.9697 72.4002 88.0259 72.1446 88.1848L71.3275 88.6931L70.4804 87.3313L71.2572 86.8482ZM77.183 89.2898L77.9172 90.47L73.9629 92.9296L73.2288 91.7495L77.183 89.2898Z" fill="white"/>
<path d="M63.5938 90.1288C64.3382 89.8825 65.0045 89.7912 65.593 89.8551C66.1839 89.9265 66.6781 90.1216 67.0756 90.4405C67.4756 90.767 67.764 91.1971 67.9406 91.7309L66.1474 92.3244C66.0778 92.1139 65.9567 91.937 65.7842 91.7939C65.6041 91.6533 65.3752 91.5664 65.0973 91.5333C64.8218 91.5076 64.4924 91.5583 64.1089 91.6852C63.7631 91.7996 63.4885 91.9405 63.2853 92.1079C63.0821 92.2753 62.9465 92.4578 62.8784 92.6555C62.8129 92.8607 62.8149 93.0686 62.8846 93.2791C62.9717 93.5423 63.1529 93.7117 63.4282 93.7874C63.7061 93.8707 64.1043 93.8515 64.623 93.7299L65.2619 93.581C66.1039 93.3774 66.8426 93.4165 67.4781 93.6984C68.1137 93.9802 68.5521 94.4858 68.7935 95.2151C68.9677 95.7414 68.9942 96.2373 68.873 96.7029C68.7443 97.1709 68.4879 97.5811 68.104 97.9334C67.7226 98.2932 67.2236 98.5751 66.607 98.7792C65.9604 98.9932 65.3705 99.0633 64.8372 98.9896C64.2989 98.9258 63.8385 98.732 63.456 98.4081C63.076 98.0917 62.7964 97.6629 62.6172 97.1216L64.4217 96.5243C64.4889 96.7273 64.5987 96.8954 64.7512 97.0284C64.9062 97.169 65.0988 97.2596 65.3292 97.3001C65.552 97.3432 65.8062 97.3174 66.0919 97.2229C66.3626 97.1333 66.577 97.0123 66.7351 96.8598C66.8857 96.7099 66.98 96.5411 67.0179 96.3533C67.0584 96.1731 67.0487 95.9927 66.989 95.8123C66.9119 95.5792 66.762 95.4036 66.5393 95.2854C66.3167 95.1672 66.0124 95.1553 65.6265 95.2497L64.9763 95.4023C64.3574 95.5487 63.7838 95.5926 63.2555 95.5339C62.7296 95.4827 62.2792 95.3189 61.9041 95.0426C61.524 94.7764 61.2493 94.3876 61.0801 93.8763C60.9059 93.35 60.892 92.8416 61.0383 92.3511C61.1796 91.8705 61.466 91.4379 61.8976 91.0531C62.3292 90.6683 62.8946 90.3603 63.5938 90.1288Z" fill="white"/>
<path d="M55.5405 92.1022C56.1904 92.003 56.7269 92.0012 57.15 92.0968C57.5744 92.2003 57.9093 92.4255 58.1545 92.7726C58.3932 93.1288 58.5621 93.6317 58.6613 94.2815L59.5255 99.9418L57.7757 100.209L56.9008 94.4782C56.8541 94.1729 56.74 93.95 56.5583 93.8095C56.37 93.678 56.1271 93.635 55.8296 93.6804L54.8783 93.8256L54.6363 92.2403L55.5405 92.1022ZM60.0251 96.681L60.2349 98.055L55.6314 98.7578L55.4216 97.3838L60.0251 96.681Z" fill="white"/>
<path d="M49.2372 92.4679L49.2409 94.3924L49.5616 94.3917L49.5657 96.4825C49.5663 96.8151 49.646 97.0644 49.8047 97.2305C49.9634 97.3965 50.217 97.4791 50.5655 97.4785C50.7397 97.4781 50.9694 97.4737 51.2545 97.4652C51.5396 97.4568 51.8326 97.4443 52.1335 97.4279C52.4344 97.4115 52.7076 97.3951 52.9531 97.3788L52.9562 98.9825C52.7741 98.9987 52.5603 99.015 52.3148 99.0313C52.0693 99.0476 51.8159 99.06 51.5545 99.0684C51.2932 99.0768 51.0477 99.0812 50.818 99.0817C50.1528 99.083 49.5942 98.989 49.1425 98.7998C48.6827 98.6106 48.3337 98.3222 48.0954 97.9346C47.857 97.5549 47.7373 97.0642 47.7361 96.4623L47.7285 92.4708L49.2372 92.4679ZM51.3158 92.2976C51.7831 92.2967 52.195 92.379 52.5518 92.5447C52.9005 92.7103 53.1742 92.9474 53.3728 93.2559C53.5714 93.5723 53.6712 93.9482 53.672 94.3838C53.6729 94.859 53.5509 95.2473 53.306 95.5487C53.061 95.858 52.717 96.0844 52.2737 96.2278C51.8305 96.3792 51.3198 96.4554 50.7417 96.4565L49.3518 96.4592L49.3497 95.4019L50.7515 95.3992C51.0842 95.3986 51.3414 95.3149 51.5232 95.1482C51.6972 94.9895 51.7839 94.7716 51.7833 94.4944C51.7828 94.233 51.6953 94.0194 51.5207 93.8534C51.3383 93.6954 51.0807 93.6167 50.7481 93.6173C50.5343 93.6177 50.3443 93.6537 50.1781 93.7253C50.004 93.8048 49.8617 93.9358 49.7512 94.1181C49.6407 94.3005 49.5778 94.5541 49.5626 94.8788L49.1102 94.4045C49.149 93.953 49.2591 93.5726 49.4407 93.2634C49.6143 92.9542 49.8594 92.7162 50.1758 92.5492C50.4844 92.3823 50.8644 92.2985 51.3158 92.2976Z" fill="white"/>
<path d="M46.0282 92.2535L45.074 98.6931L43.5815 98.472L43.9907 95.7105L44.026 95.7157C43.8913 96.6245 43.5955 97.2972 43.1385 97.7338C42.6736 98.1693 42.073 98.3325 41.3366 98.2234L41.0898 98.1868L41.3301 96.5652L41.8002 96.6348C42.3172 96.7115 42.7377 96.6297 43.0615 96.3894C43.3841 96.157 43.5844 95.7784 43.6621 95.2535L44.148 91.9749L46.0282 92.2535Z" fill="white"/>
<path d="M38.0511 90.4847C38.6839 90.6627 39.1733 90.8825 39.5192 91.1444C39.863 91.4138 40.075 91.7572 40.155 92.1747C40.2253 92.5975 40.1715 93.1254 39.9935 93.7581L38.4433 99.2702L36.7393 98.791L38.3088 93.2103C38.3925 92.913 38.3805 92.6628 38.2731 92.4598C38.1559 92.2623 37.9524 92.1229 37.6627 92.0414L36.7364 91.7809L37.1706 90.237L38.0511 90.4847ZM40.2448 96.5066L39.8685 97.8446L35.3855 96.5839L35.7618 95.2459L40.2448 96.5066Z" fill="white"/>
<path d="M33.174 88.4133C33.6779 88.6445 34.0845 88.9357 34.394 89.2868C34.6962 89.6346 34.9108 90.0119 35.0378 90.4188C35.1543 90.8295 35.1984 91.2462 35.17 91.6688C35.1311 92.0954 35.0241 92.4994 34.849 92.8809L34.7499 93.0968C34.5683 93.4927 34.3301 93.8409 34.0354 94.1413C33.7301 94.4457 33.3855 94.684 33.0014 94.8563C32.6174 95.0286 32.2002 95.1117 31.7499 95.1054C31.2892 95.1031 30.8176 94.9913 30.3354 94.77C29.7019 94.4794 29.2353 94.091 28.9356 93.6049C28.6253 93.1227 28.4607 92.5984 28.4418 92.032C28.4195 91.4729 28.5323 90.9234 28.78 90.3835L29.0476 89.8005L34.2842 92.2034L33.8333 93.186L29.644 91.2636L30.4136 91.0678C30.2517 91.4205 30.1634 91.7459 30.1485 92.0441C30.1337 92.3422 30.1973 92.6023 30.3394 92.8244C30.471 93.0503 30.6844 93.231 30.9795 93.3664C31.2818 93.5052 31.5687 93.554 31.8402 93.5131C32.1117 93.4721 32.3626 93.3432 32.5928 93.1264C32.8196 92.9169 33.0206 92.6213 33.1957 92.2398C33.3575 91.8871 33.4492 91.5545 33.4706 91.2419C33.4888 90.9366 33.4229 90.6624 33.273 90.4193C33.1231 90.1763 32.8754 89.9755 32.5299 89.8169C32.2132 89.6716 31.926 89.6139 31.6683 89.6437C31.4106 89.6736 31.2045 89.762 31.0499 89.9089L29.4627 89.1806C29.7308 88.8244 30.0618 88.5493 30.4557 88.3554C30.8497 88.1615 31.2771 88.0657 31.7379 88.068C32.1986 88.0703 32.6774 88.1854 33.174 88.4133Z" fill="white"/>
<path d="M26.8581 84.7797C27.2304 85.0487 27.522 85.3619 27.7327 85.7194C27.937 86.0722 28.0657 86.4485 28.1187 86.8484C28.1672 87.2546 28.1341 87.6655 28.0195 88.081C27.8985 88.4919 27.7012 88.8867 27.4275 89.2654L27.2675 89.4869C26.9938 89.8656 26.6841 90.1793 26.3384 90.4278C25.9863 90.6717 25.6162 90.8391 25.2281 90.93C24.829 91.0226 24.4299 91.0273 24.0307 90.9441C23.627 90.8674 23.2389 90.6945 22.8666 90.4255C22.4429 90.1193 22.1443 89.7619 21.9707 89.3531C21.7924 88.9507 21.7465 88.5072 21.8329 88.0225C21.9147 87.5442 22.1338 87.0381 22.4902 86.5042L22.6233 87.1719L20.0073 90.7924L18.457 89.6723L23.536 82.6432L24.7589 83.5268L23.1795 85.7125L22.9677 85.5595C23.3487 85.0727 23.7631 84.7223 24.2108 84.5084C24.6521 84.2899 25.1005 84.2035 25.5559 84.2492C26.0068 84.3014 26.4408 84.4782 26.8581 84.7797ZM25.5406 85.7917C25.3031 85.6201 25.051 85.516 24.7842 85.4796C24.5063 85.4449 24.2354 85.4886 23.9714 85.6105C23.701 85.7278 23.4615 85.9309 23.2527 86.2197L22.9953 86.576C22.7912 86.8585 22.6806 87.14 22.6634 87.4207C22.6462 87.7014 22.7 87.965 22.8248 88.2115C22.9496 88.458 23.1276 88.6648 23.3586 88.8317C23.6154 89.0173 23.8952 89.1168 24.1981 89.1305C24.4898 89.1459 24.777 89.0798 25.0595 88.9321C25.3374 88.791 25.5853 88.5695 25.8033 88.2678C26.026 87.9597 26.1607 87.6515 26.2075 87.3434C26.2543 87.0352 26.219 86.7459 26.1017 86.4756C25.9844 86.2052 25.7974 85.9772 25.5406 85.7917Z" fill="white"/>
<path d="M13.7961 78.3817L13.9271 80.6137L12.882 81.475L10.716 80.9203L11.2343 79.5694L12.6145 80.31L12.8345 80.1287L12.3619 78.6401L13.7961 78.3817ZM11.0172 82.8734L12.8826 81.6439L14.1532 82.1207L14.756 84.2717L13.3342 84.4891L13.2818 82.9313L13.0131 82.8295L11.9574 83.9767L11.0172 82.8734ZM16.3053 82.9948L14.309 81.9923L14.0835 80.6541L15.6467 79.0579L16.5593 80.1838L15.2316 81.001L15.2802 81.2842L16.7918 81.6239L16.3053 82.9948Z" fill="white"/>
<path d="M12.6758 67.3261C12.9857 68.0377 13.1398 68.7091 13.1383 69.3403C13.1295 69.9747 13.0012 70.5531 12.7536 71.0755C12.5029 71.5907 12.1706 72.0377 11.7568 72.4165C11.343 72.7954 10.8928 73.0907 10.4063 73.3025L10.1667 73.4069C9.66568 73.625 9.13918 73.7549 8.58722 73.7966C8.03525 73.8382 7.49049 73.7774 6.95294 73.6141C6.41223 73.4436 5.91662 73.1584 5.4661 72.7585C5.01242 72.3514 4.64172 71.8175 4.35401 71.1567C4.041 70.4379 3.89869 69.744 3.92707 69.0752C3.94819 68.4096 4.12203 67.807 4.44857 67.2674C4.76786 66.7311 5.22504 66.3031 5.82012 65.9836L6.5979 67.7698C6.32642 67.9398 6.12286 68.1667 5.98722 68.4503C5.84842 68.7267 5.78054 69.037 5.78356 69.3812C5.78343 69.7181 5.8624 70.0681 6.02048 70.4312C6.17224 70.7797 6.36992 71.065 6.61351 71.2872C6.85393 71.5021 7.12938 71.6586 7.43984 71.7566C7.74715 71.8474 8.07905 71.8757 8.43555 71.8414C8.78163 71.803 9.13983 71.7032 9.51016 71.5419C9.89501 71.3744 10.225 71.1702 10.5003 70.9294C10.7651 70.6846 10.9694 70.4099 11.1133 70.1054C11.2498 69.8041 11.315 69.4777 11.3088 69.1262C11.2995 68.7675 11.2142 68.403 11.0529 68.0327C10.8379 67.5389 10.5497 67.1548 10.1883 66.8803C9.82695 66.6057 9.44446 66.4613 9.04088 66.447L10.3556 66.1337L8.46043 66.9589L7.74431 65.3142L9.44345 64.5744C10.1439 64.6754 10.7742 64.9624 11.3343 65.4355C11.8841 65.9044 12.3312 66.5346 12.6758 67.3261ZM9.71479 68.8874L8.42954 69.447L6.52304 65.0686L7.8083 64.5089L9.71479 68.8874Z" fill="white"/>
<path d="M10.0469 58.7438C10.153 59.2879 10.1536 59.7881 10.0488 60.2442C9.94256 60.6925 9.76122 61.0869 9.50481 61.4273C9.23912 61.7615 8.92632 62.0403 8.56643 62.2638C8.19724 62.4809 7.80665 62.6297 7.39465 62.71L7.16145 62.7554C6.7339 62.8387 6.31216 62.8483 5.89621 62.7841C5.47098 62.7137 5.07638 62.5727 4.71242 62.3612C4.34845 62.1498 4.03769 61.8593 3.78013 61.49C3.51327 61.1143 3.3291 60.6661 3.2276 60.1453C3.0943 59.4612 3.13767 58.8557 3.35772 58.3287C3.56848 57.7955 3.89838 57.356 4.34741 57.0103C4.78867 56.6661 5.30081 56.4372 5.88382 56.3236L6.51348 56.2009L7.61554 61.856L6.55445 62.0628L5.6728 57.5387L6.2807 58.0496C5.89979 58.1238 5.58391 58.2418 5.33304 58.4037C5.08217 58.5655 4.90799 58.7689 4.81048 59.0138C4.70368 59.2525 4.68134 59.5312 4.74345 59.8499C4.80707 60.1764 4.9347 60.4379 5.12633 60.6346C5.31795 60.8312 5.56894 60.9598 5.87929 61.0204C6.18186 61.0824 6.53914 61.0733 6.95114 60.9931C7.33204 60.9188 7.6557 60.7993 7.92212 60.6344C8.18076 60.471 8.36509 60.2576 8.47511 59.9941C8.58514 59.7306 8.6038 59.4123 8.53108 59.0392C8.46443 58.6972 8.34382 58.4302 8.16925 58.2383C7.99469 58.0464 7.80266 57.9305 7.59317 57.8906L7.25915 56.1766C7.70487 56.1866 8.12137 56.295 8.50866 56.502C8.89594 56.7089 9.22301 57.0002 9.48986 57.3758C9.75671 57.7514 9.9424 58.2074 10.0469 58.7438Z" fill="white"/>
<path d="M9.16457 51.3042C9.18912 51.9611 9.1298 52.4943 8.9866 52.9038C8.83548 53.3136 8.57353 53.6206 8.20075 53.8247C7.81975 54.0212 7.30081 54.1318 6.64393 54.1563L0.921916 54.3702L0.85581 52.6014L6.64905 52.3849C6.9577 52.3733 7.19217 52.2853 7.35246 52.1208C7.50453 51.9487 7.57495 51.7123 7.56371 51.4116L7.52777 50.45L9.13041 50.3901L9.16457 51.3042ZM4.10466 55.2379L2.71571 55.2898L2.54179 50.6363L3.93074 50.5844L4.10466 55.2379Z" fill="white"/>
<path d="M10.1107 42.9834C9.95665 43.7521 9.70635 44.3764 9.3598 44.8562C9.00549 45.3344 8.59144 45.6674 8.11764 45.8552C7.63608 46.0414 7.11963 46.0792 6.56829 45.9688L6.93942 44.1168C7.15686 44.1603 7.37043 44.1425 7.58014 44.0634C7.79141 43.9765 7.98018 43.8205 8.14646 43.5953C8.30497 43.3686 8.42391 43.0573 8.50327 42.6613C8.57485 42.3041 8.58817 41.9958 8.54322 41.7364C8.49828 41.477 8.40672 41.2688 8.26855 41.1119C8.1226 40.9534 7.94092 40.8524 7.72349 40.8088C7.4517 40.7544 7.21481 40.828 7.01282 41.0299C6.80306 41.2302 6.62275 41.5858 6.4719 42.0967L6.28528 42.7257C6.04577 43.5581 5.64636 44.1807 5.08706 44.5936C4.52775 45.0066 3.87147 45.1376 3.11823 44.9866C2.57465 44.8777 2.13052 44.6554 1.78584 44.3198C1.44271 43.9764 1.213 43.5508 1.0967 43.0429C0.972639 42.5334 0.974409 41.9603 1.10201 41.3235C1.23584 40.6557 1.4667 40.1083 1.79458 39.6813C2.11626 39.245 2.51244 38.9407 2.98312 38.7685C3.44604 38.5947 3.95706 38.5639 4.51616 38.6759L4.14269 40.5395C3.93303 40.4975 3.73266 40.5099 3.54159 40.5766C3.34276 40.6418 3.16875 40.7644 3.01958 40.9445C2.87196 41.1168 2.76858 41.3506 2.70945 41.6456C2.65343 41.9252 2.65256 42.1714 2.70684 42.3842C2.76268 42.5892 2.8628 42.7546 3.0072 42.8805C3.14383 43.0048 3.30533 43.0856 3.4917 43.123C3.73243 43.1712 3.95921 43.1278 4.17205 42.9928C4.38489 42.8577 4.54575 42.5992 4.65461 42.2172L4.84357 41.5765C5.02242 40.9662 5.26802 40.446 5.58037 40.0159C5.88497 39.5842 6.25008 39.2737 6.67573 39.0844C7.09517 38.8858 7.56891 38.8394 8.09696 38.9452C8.64054 39.0541 9.08932 39.2935 9.44331 39.6632C9.79109 40.0237 10.0254 40.4866 10.1464 41.052C10.2673 41.6174 10.2554 42.2612 10.1107 42.9834Z" fill="white"/>
<path d="M12.3846 34.993C12.149 35.6066 11.885 36.0736 11.5924 36.394C11.2924 36.7115 10.9308 36.8908 10.5078 36.9321C10.0803 36.9631 9.55963 36.8608 8.94593 36.6253L3.60013 34.5736L4.23437 32.9211L9.64672 34.9983C9.93508 35.109 10.1853 35.1202 10.3973 35.0319C10.6048 34.9334 10.7624 34.7437 10.8703 34.4627L11.2151 33.5643L12.7123 34.139L12.3846 34.993ZM6.18591 36.6221L4.88828 36.1241L6.55689 31.7766L7.85452 32.2746L6.18591 36.6221Z" fill="white"/>
<path d="M15.1811 29.3618L13.5084 28.4102L13.3498 28.689L11.5324 27.6552C11.2433 27.4907 10.9873 27.4362 10.7644 27.4916C10.5415 27.5471 10.3439 27.7262 10.1716 28.0291C10.0855 28.1805 9.97536 28.3821 9.84127 28.6338C9.70717 28.8856 9.5726 29.1461 9.43756 29.4156C9.30252 29.685 9.18118 29.9303 9.07355 30.1515L7.67957 29.3585C7.75587 29.1924 7.84784 28.9987 7.95547 28.7775C8.0631 28.5562 8.17809 28.3301 8.30043 28.099C8.42278 27.8679 8.54073 27.6526 8.6543 27.453C8.98325 26.8747 9.34193 26.4364 9.73036 26.138C10.1227 25.8328 10.5463 25.6728 11.0011 25.6582C11.449 25.6396 11.9345 25.7792 12.4577 26.0768L15.9271 28.0504L15.1811 29.3618ZM14.2977 31.251C14.0667 31.6571 13.7908 31.9739 13.47 32.2015C13.1531 32.4221 12.8115 32.5421 12.4451 32.5615C12.0719 32.5769 11.6959 32.477 11.3173 32.2616C10.9043 32.0267 10.6277 31.7281 10.4875 31.3659C10.3404 30.9998 10.3146 30.5887 10.41 30.1327C10.4985 29.6728 10.6857 29.1916 10.9715 28.6891L11.6588 27.481L12.5778 28.0038L11.8847 29.2222C11.7202 29.5114 11.6652 29.7762 11.7197 30.0168C11.7712 30.2465 11.9174 30.4299 12.1584 30.567C12.3855 30.6962 12.6145 30.7262 12.8452 30.657C13.0729 30.577 13.2691 30.3924 13.4335 30.1033C13.5393 29.9175 13.6023 29.7346 13.6226 29.5548C13.6399 29.3642 13.5968 29.1757 13.4933 28.9893C13.3898 28.8028 13.2008 28.6225 12.9264 28.4481L13.5627 28.2907C13.9355 28.5484 14.2111 28.8327 14.3895 29.1437C14.5718 29.4479 14.6569 29.7788 14.6448 30.1364C14.6366 30.4871 14.521 30.8586 14.2977 31.251Z" fill="white"/>
<path d="M16.9389 26.7137L11.8212 22.6901L12.7537 21.5041L14.9484 23.2296L14.9263 23.2576C14.2041 22.6898 13.7668 22.0991 13.6145 21.4857C13.467 20.866 13.6233 20.2636 14.0835 19.6784L14.2377 19.4823L15.5264 20.4955L15.2327 20.8691C14.9096 21.2799 14.7721 21.6856 14.82 22.0859C14.8616 22.4814 15.091 22.8431 15.5082 23.171L18.1137 25.2196L16.9389 26.7137Z" fill="white"/>
<path d="M22.4312 20.6636C21.9633 21.1253 21.53 21.4416 21.1312 21.6126C20.7269 21.7779 20.3236 21.792 19.9213 21.6549C19.5191 21.5066 19.0871 21.1986 18.6254 20.7307L14.6034 16.6551L15.8634 15.4118L19.9353 19.5382C20.1523 19.758 20.3755 19.8715 20.6051 19.8786C20.8348 19.8745 21.0567 19.7668 21.2709 19.5554L21.9558 18.8796L23.0823 20.0211L22.4312 20.6636ZM16.1128 19.5884L15.1366 18.5991L18.4512 15.3282L19.4275 16.3175L16.1128 19.5884Z" fill="white"/>
<path d="M26.649 17.4408C26.1992 17.7648 25.7452 17.9747 25.2871 18.0705C24.8354 18.1616 24.4014 18.162 23.9848 18.0716C23.5701 17.9702 23.186 17.8028 22.8324 17.5694C22.4807 17.325 22.1821 17.0326 21.9368 16.692L21.7979 16.4992C21.5433 16.1458 21.3581 15.7668 21.2423 15.3622C21.1283 14.9465 21.0912 14.5291 21.1309 14.1101C21.1706 13.691 21.3043 13.2873 21.532 12.8988C21.7615 12.4992 22.0915 12.1443 22.522 11.8342C23.0875 11.4268 23.6556 11.2128 24.2263 11.192C24.7989 11.1603 25.3361 11.2759 25.838 11.5391C26.3353 11.7957 26.7575 12.1651 27.1047 12.647L27.4797 13.1675L22.8048 16.5352L22.1729 15.6581L25.9128 12.9639L25.7032 13.7298C25.4764 13.4149 25.237 13.1775 24.985 13.0174C24.733 12.8573 24.4754 12.7842 24.2121 12.7982C23.9507 12.8011 23.6882 12.8974 23.4247 13.0872C23.1548 13.2816 22.9707 13.507 22.8723 13.7633C22.7739 14.0197 22.7622 14.3014 22.8371 14.6086C22.9073 14.9094 23.0651 15.2301 23.3105 15.5706C23.5373 15.8855 23.7814 16.1294 24.0426 16.3023C24.2992 16.4689 24.5702 16.5469 24.8556 16.5366C25.1409 16.5262 25.4378 16.4099 25.7463 16.1877C26.029 15.9841 26.221 15.7628 26.3222 15.5239C26.4235 15.2851 26.4483 15.0622 26.3969 14.8552L27.8138 13.8345C27.9913 14.2435 28.0671 14.6671 28.0413 15.1055C28.0154 15.5438 27.8878 15.9627 27.6583 16.3623C27.4288 16.7619 27.0924 17.1214 26.649 17.4408Z" fill="white"/>
<path d="M32.9266 13.7385C32.5089 13.9295 32.0926 14.0284 31.6777 14.0352C31.27 14.0387 30.8792 13.9648 30.5053 13.8136C30.128 13.6551 29.787 13.4235 29.4822 13.1188C29.1847 12.8107 28.9387 12.4442 28.7444 12.0192L28.6308 11.7708C28.4366 11.3458 28.3167 10.9217 28.2712 10.4984C28.2329 10.0718 28.27 9.66727 28.3826 9.28491C28.4991 8.89206 28.692 8.54262 28.9614 8.2366C29.2275 7.92339 29.5694 7.67129 29.9872 7.48031C30.4625 7.26298 30.9208 7.17973 31.3621 7.23055C31.8 7.27417 32.2084 7.4532 32.5873 7.76764C32.9629 8.07488 33.2948 8.51527 33.5832 9.0888L32.9367 8.87489L31.0796 4.81262L32.819 4.01742L36.4247 11.9043L35.0526 12.5315L33.9314 10.0791L34.1691 9.97039C34.4043 10.5421 34.5044 11.0754 34.4695 11.5703C34.4417 12.0619 34.2955 12.4945 34.0308 12.868C33.7629 13.2343 33.3948 13.5245 32.9266 13.7385ZM32.6969 12.0933C32.9635 11.9714 33.1784 11.8035 33.3418 11.5895C33.5091 11.3649 33.6049 11.1078 33.6292 10.8181C33.6607 10.525 33.6023 10.2164 33.4541 9.89231L33.2714 9.49257C33.1265 9.17565 32.9362 8.94044 32.7006 8.78692C32.465 8.63341 32.2091 8.55007 31.9332 8.5369C31.6572 8.52373 31.3896 8.57642 31.1303 8.69496C30.8422 8.82667 30.6174 9.02084 30.4561 9.27746C30.2987 9.52359 30.2144 9.80594 30.2033 10.1245C30.1889 10.4359 30.2591 10.7608 30.4138 11.0993C30.5719 11.4451 30.7734 11.7143 31.0183 11.9071C31.2632 12.1 31.5321 12.2121 31.8252 12.2436C32.1183 12.2751 32.4088 12.225 32.6969 12.0933Z" fill="white"/>
<path d="M44.955 5.56045L42.9522 4.56645L42.723 3.23173L44.2795 1.62656L45.1951 2.74698L43.8672 3.57766L43.9155 3.85865L45.4424 4.18707L44.955 5.56045ZM42.4343 0.918867L42.5761 3.14848L41.5316 4.01487L39.365 3.47086L39.8818 2.12857L41.2603 2.85613L41.4821 2.67341L41.0099 1.18756L42.4343 0.918867ZM39.7048 5.44951L41.5658 4.21391L42.8395 4.68223L43.4496 6.83142L42.0192 7.06499L41.9686 5.50676L41.6986 5.40848L40.6535 6.5522L39.7048 5.44951Z" fill="white"/>
<path fill-rule="evenodd" clip-rule="evenodd" d="M57.1122 41.658C54.7178 44.0524 50.3543 44.0533 47.9589 41.658L46.9768 40.6759L45.0126 42.6401L45.9947 43.6222C47.737 45.3644 50.1353 46.2346 52.5346 46.2356L40.4163 58.3536L42.3805 60.3177L54.4988 48.1997C54.4998 50.599 55.3699 52.9972 57.1122 54.7395L58.0943 55.7216L60.0585 53.7574L59.0764 52.7753C56.6811 50.38 56.682 46.0166 59.0764 43.6222L60.0585 42.6401L58.0943 40.6759L57.1122 41.658Z" fill="white"/>
</svg>
