<svg width="50" height="50" viewBox="0 0 50 50" fill="none" xmlns="http://www.w3.org/2000/svg">
<path d="M16.0709 46.4286C23.9607 46.4286 30.3566 40.0327 30.3566 32.1429C30.3566 24.2531 23.9607 17.8572 16.0709 17.8572C8.18109 17.8572 1.78516 24.2531 1.78516 32.1429C1.78516 40.0327 8.18109 46.4286 16.0709 46.4286Z" stroke="#FFE47A" stroke-width="1.5" stroke-linecap="round" stroke-linejoin="round"/>
<path d="M33.9283 46.4286C41.8181 46.4286 48.214 40.0327 48.214 32.1429C48.214 24.2531 41.8181 17.8572 33.9283 17.8572C26.0385 17.8572 19.6426 24.2531 19.6426 32.1429C19.6426 40.0327 26.0385 46.4286 33.9283 46.4286Z" stroke="#FFE47A" stroke-width="1.5" stroke-linecap="round" stroke-linejoin="round"/>
<path d="M24.9986 32.143C32.8884 32.143 39.2843 25.747 39.2843 17.8572C39.2843 9.96746 32.8884 3.57153 24.9986 3.57153C17.1088 3.57153 10.7129 9.96746 10.7129 17.8572C10.7129 25.747 17.1088 32.143 24.9986 32.143Z" stroke="#FFE47A" stroke-width="1.5" stroke-linecap="round" stroke-linejoin="round"/>
</svg>
