<svg width="30" height="31" viewBox="0 0 30 31" fill="none" xmlns="http://www.w3.org/2000/svg">
<path d="M9.64272 27.9373C14.3766 27.9373 18.2141 24.0997 18.2141 19.3659C18.2141 14.632 14.3766 10.7944 9.64272 10.7944C4.90885 10.7944 1.07129 14.632 1.07129 19.3659C1.07129 24.0997 4.90885 27.9373 9.64272 27.9373Z" stroke="#121A1F" stroke-width="1.5" stroke-linecap="round" stroke-linejoin="round"/>
<path d="M20.3566 27.9373C25.0905 27.9373 28.928 24.0997 28.928 19.3659C28.928 14.632 25.0905 10.7944 20.3566 10.7944C15.6227 10.7944 11.7852 14.632 11.7852 19.3659C11.7852 24.0997 15.6227 27.9373 20.3566 27.9373Z" stroke="#121A1F" stroke-width="1.5" stroke-linecap="round" stroke-linejoin="round"/>
<path d="M15.0001 19.3658C19.734 19.3658 23.5716 15.5282 23.5716 10.7943C23.5716 6.06046 19.734 2.2229 15.0001 2.2229C10.2663 2.2229 6.42871 6.06046 6.42871 10.7943C6.42871 15.5282 10.2663 19.3658 15.0001 19.3658Z" stroke="#121A1F" stroke-width="1.5" stroke-linecap="round" stroke-linejoin="round"/>
</svg>
