<svg width="40" height="41" viewBox="0 0 40 41" fill="none" xmlns="http://www.w3.org/2000/svg">
<path d="M12.857 37.8745C19.1689 37.8745 24.2856 32.7577 24.2856 26.4459C24.2856 20.1341 19.1689 15.0173 12.857 15.0173C6.54521 15.0173 1.42847 20.1341 1.42847 26.4459C1.42847 32.7577 6.54521 37.8745 12.857 37.8745Z" stroke="#121A1F" stroke-width="1.5" stroke-linecap="round" stroke-linejoin="round"/>
<path d="M27.1427 37.8745C33.4545 37.8745 38.5713 32.7577 38.5713 26.4459C38.5713 20.1341 33.4545 15.0173 27.1427 15.0173C20.8309 15.0173 15.7141 20.1341 15.7141 26.4459C15.7141 32.7577 20.8309 37.8745 27.1427 37.8745Z" stroke="#121A1F" stroke-width="1.5" stroke-linecap="round" stroke-linejoin="round"/>
<path d="M19.9999 26.446C26.3117 26.446 31.4284 21.3293 31.4284 15.0174C31.4284 8.70561 26.3117 3.58887 19.9999 3.58887C13.688 3.58887 8.57129 8.70561 8.57129 15.0174C8.57129 21.3293 13.688 26.446 19.9999 26.446Z" stroke="#121A1F" stroke-width="1.5" stroke-linecap="round" stroke-linejoin="round"/>
</svg>
