<svg width="30" height="31" viewBox="0 0 30 31" fill="none" xmlns="http://www.w3.org/2000/svg">
<g clip-path="url(#clip0_322_327)">
<path d="M16.0071 15.7053C15.6893 15.8433 15.3465 15.9146 15 15.9146C14.6535 15.9146 14.3107 15.8433 13.9928 15.7053L1.77855 10.0482C1.58021 9.94814 1.41353 9.79501 1.29707 9.60584C1.18062 9.41668 1.11896 9.19889 1.11896 8.97675C1.11896 8.75461 1.18062 8.53683 1.29707 8.34766C1.41353 8.15849 1.58021 8.00536 1.77855 7.90532L13.9928 2.20533C14.3107 2.06731 14.6535 1.99609 15 1.99609C15.3465 1.99609 15.6893 2.06731 16.0071 2.20533L28.2214 7.86247C28.4197 7.96251 28.5864 8.11564 28.7029 8.30481C28.8193 8.49397 28.881 8.71176 28.881 8.9339C28.881 9.15604 28.8193 9.37382 28.7029 9.56299C28.5864 9.75216 28.4197 9.90529 28.2214 10.0053L16.0071 15.7053Z" stroke="white" stroke-width="1.5" stroke-linecap="round" stroke-linejoin="round"/>
<path d="M28.9286 16.6699L15.8571 22.6914C15.578 22.8187 15.2747 22.8846 14.9678 22.8846C14.661 22.8846 14.3577 22.8187 14.0786 22.6914L1.07141 16.6699" stroke="white" stroke-width="1.5" stroke-linecap="round" stroke-linejoin="round"/>
<path d="M28.9286 23.6348L15.8571 29.6562C15.578 29.7835 15.2747 29.8494 14.9678 29.8494C14.661 29.8494 14.3577 29.7835 14.0786 29.6562L1.07141 23.6348" stroke="white" stroke-width="1.5" stroke-linecap="round" stroke-linejoin="round"/>
</g>
<defs>
<clipPath id="clip0_322_327">
<rect width="30" height="30" fill="white" transform="translate(0 0.919922)"/>
</clipPath>
</defs>
</svg>
