<svg width="26" height="26" viewBox="0 0 26 26" fill="none" xmlns="http://www.w3.org/2000/svg">
<g clip-path="url(#clip0_322_726)">
<path d="M3.17857 11.6738H4.96428C5.20108 11.6738 5.42818 11.7679 5.59563 11.9353C5.76307 12.1028 5.85714 12.3299 5.85714 12.5667V17.031C5.85714 17.2678 5.76307 17.4949 5.59563 17.6623C5.42818 17.8298 5.20108 17.9238 4.96428 17.9238H3.17857C2.70497 17.9238 2.25076 17.7357 1.91588 17.4008C1.58099 17.0659 1.39285 16.6117 1.39285 16.1381V13.4595C1.39285 12.9859 1.58099 12.5317 1.91588 12.1969C2.25076 11.862 2.70497 11.6738 3.17857 11.6738V11.6738Z" stroke="white" stroke-width="1.5" stroke-linecap="round" stroke-linejoin="round"/>
<path d="M22.8214 17.9238H21.0357C20.7989 17.9238 20.5718 17.8298 20.4044 17.6623C20.2369 17.4949 20.1429 17.2678 20.1429 17.031V12.5667C20.1429 12.3299 20.2369 12.1028 20.4044 11.9353C20.5718 11.7679 20.7989 11.6738 21.0357 11.6738H22.8214C23.295 11.6738 23.7492 11.862 24.0841 12.1969C24.419 12.5317 24.6071 12.9859 24.6071 13.4595V16.1381C24.6071 16.6117 24.419 17.0659 24.0841 17.4008C23.7492 17.7357 23.295 17.9238 22.8214 17.9238V17.9238Z" stroke="white" stroke-width="1.5" stroke-linecap="round" stroke-linejoin="round"/>
<path d="M17.4643 22.8345C18.4115 22.8345 19.3199 22.4583 19.9897 21.7885C20.6594 21.1187 21.0357 20.2103 21.0357 19.2631V17.9238" stroke="white" stroke-width="1.5" stroke-linecap="round" stroke-linejoin="round"/>
<path d="M15.2321 20.6016C15.8241 20.6016 16.3919 20.8367 16.8105 21.2553C17.2291 21.674 17.4643 22.2417 17.4643 22.8337C17.4643 23.4257 17.2291 23.9935 16.8105 24.4121C16.3919 24.8307 15.8241 25.0658 15.2321 25.0658H12.5536C11.9616 25.0658 11.3938 24.8307 10.9752 24.4121C10.5566 23.9935 10.3214 23.4257 10.3214 22.8337C10.3214 22.2417 10.5566 21.674 10.9752 21.2553C11.3938 20.8367 11.9616 20.6016 12.5536 20.6016H15.2321Z" stroke="white" stroke-width="1.5" stroke-linecap="round" stroke-linejoin="round"/>
<path d="M4.96429 11.673V9.88728C4.96429 7.75607 5.81091 5.71216 7.3179 4.20517C8.82489 2.69818 10.8688 1.85156 13 1.85156C15.1312 1.85156 17.1751 2.69818 18.6821 4.20517C20.1891 5.71216 21.0357 7.75607 21.0357 9.88728V11.673" stroke="white" stroke-width="1.5" stroke-linecap="round" stroke-linejoin="round"/>
<path d="M10.3214 8.10156V10.7801" stroke="white" stroke-width="1.5" stroke-linecap="round" stroke-linejoin="round"/>
<path d="M15.6786 8.10156V10.7801" stroke="white" stroke-width="1.5" stroke-linecap="round" stroke-linejoin="round"/>
<path d="M10.3214 14.3516C10.3214 16.7266 15.6786 16.7266 15.6786 14.3516" stroke="white" stroke-width="1.5" stroke-linecap="round" stroke-linejoin="round"/>
</g>
<defs>
<clipPath id="clip0_322_726">
<rect width="25" height="25" fill="white" transform="translate(0.5 0.958984)"/>
</clipPath>
</defs>
</svg>
