<svg width="40" height="41" viewBox="0 0 40 41" fill="none" xmlns="http://www.w3.org/2000/svg">
<path d="M21.3429 20.3122C20.9191 20.4962 20.462 20.5912 20 20.5912C19.538 20.5912 19.0809 20.4962 18.6571 20.3122L2.37143 12.7693C2.10698 12.6359 1.88474 12.4318 1.72946 12.1795C1.57419 11.9273 1.49197 11.6369 1.49197 11.3407C1.49197 11.0446 1.57419 10.7542 1.72946 10.502C1.88474 10.2497 2.10698 10.0456 2.37143 9.91218L18.6571 2.31218C19.0809 2.12816 19.538 2.0332 20 2.0332C20.462 2.0332 20.9191 2.12816 21.3429 2.31218L37.6286 9.85504C37.893 9.98842 38.1153 10.1926 38.2705 10.4448C38.4258 10.697 38.508 10.9874 38.508 11.2836C38.508 11.5798 38.4258 11.8702 38.2705 12.1224C38.1153 12.3746 37.893 12.5788 37.6286 12.7122L21.3429 20.3122Z" stroke="#FFE47A" stroke-width="1.5" stroke-linecap="round" stroke-linejoin="round"/>
<path d="M38.5714 21.5977L21.1428 29.6262C20.7706 29.796 20.3663 29.8839 19.9571 29.8839C19.548 29.8839 19.1436 29.796 18.7714 29.6262L1.42856 21.5977" stroke="#FFE47A" stroke-width="1.5" stroke-linecap="round" stroke-linejoin="round"/>
<path d="M38.5714 30.8828L21.1428 38.9114C20.7706 39.0812 20.3663 39.169 19.9571 39.169C19.548 39.169 19.1436 39.0812 18.7714 38.9114L1.42856 30.8828" stroke="#FFE47A" stroke-width="1.5" stroke-linecap="round" stroke-linejoin="round"/>
</svg>
