<svg width="40" height="40" viewBox="0 0 40 40" fill="none" xmlns="http://www.w3.org/2000/svg">
<path d="M20.0002 0.677734C23.6089 0.677808 27.0696 2.11145 29.6213 4.66309C32.1732 7.21492 33.6067 10.6763 33.6067 14.2852C33.6066 16.2394 32.7396 18.775 31.5295 21.3955C30.3061 24.0449 28.6807 26.8874 27.0657 29.4912C25.4491 32.0975 23.8339 34.4786 22.6233 36.207C22.018 37.0713 21.5132 37.7733 21.1594 38.2598C20.9825 38.503 20.8425 38.6924 20.7473 38.8213C20.6998 38.8857 20.6637 38.9354 20.6389 38.9688C20.6265 38.9854 20.617 38.9982 20.6106 39.0068C20.6074 39.0111 20.6045 39.0144 20.6028 39.0166L20.6008 39.0195L20.0002 38.5703L20.5999 39.0205C20.4583 39.2093 20.2362 39.3202 20.0002 39.3203C19.7641 39.3203 19.5413 39.2095 19.3997 39.0205L20.0002 38.5703L19.3997 39.0195H19.3987C19.3982 39.0189 19.3976 39.0177 19.3967 39.0166C19.3951 39.0144 19.393 39.011 19.3899 39.0068C19.3835 38.9983 19.3739 38.9854 19.3616 38.9688C19.3368 38.9354 19.2998 38.8857 19.2522 38.8213C19.157 38.6924 19.0179 38.5029 18.8411 38.2598C18.4873 37.7733 17.9826 37.0714 17.3772 36.207C16.1666 34.4786 14.5505 32.0976 12.9338 29.4912C11.3188 26.8874 9.69435 24.0448 8.47095 21.3955C7.26085 18.775 6.3929 16.2394 6.39282 14.2852C6.39282 10.6763 7.82634 7.21492 10.3782 4.66309C12.93 2.11125 16.3914 0.677734 20.0002 0.677734ZM20.0002 2.17773C16.7892 2.17773 13.7092 3.4531 11.4387 5.72363C9.16819 7.99416 7.89282 11.0741 7.89282 14.2852C7.89291 15.888 8.63179 18.1669 9.83228 20.7666C11.0196 23.3378 12.61 26.1219 14.2092 28.7002C15.8068 31.2758 17.4056 33.6323 18.6057 35.3457C19.1747 36.1581 19.6534 36.8253 19.9993 37.3018C20.3452 36.8253 20.8255 36.1584 21.3948 35.3457C22.5948 33.6323 24.1937 31.2757 25.7913 28.7002C27.3904 26.122 28.98 23.3377 30.1672 20.7666C31.3677 18.1669 32.1066 15.888 32.1067 14.2852C32.1067 11.0741 30.8313 7.99416 28.5608 5.72363C26.2903 3.4533 23.2111 2.17781 20.0002 2.17773ZM20.0002 9.25C22.7812 9.25023 25.0354 11.5051 25.0354 14.2861C25.0352 17.0669 22.7811 19.3211 20.0002 19.3213C17.2193 19.3212 14.9643 17.067 14.9641 14.2861C14.9641 11.505 17.2192 9.25007 20.0002 9.25ZM20.0002 10.75C18.0476 10.7501 16.4641 12.3335 16.4641 14.2861C16.4643 16.2386 18.0477 17.8212 20.0002 17.8213C21.9526 17.8211 23.5352 16.2385 23.5354 14.2861C23.5354 12.3336 21.9528 10.7502 20.0002 10.75Z" fill="url(#paint0_linear_322_1051)"/>
<defs>
<linearGradient id="paint0_linear_322_1051" x1="6.39282" y1="19.999" x2="33.6067" y2="19.999" gradientUnits="userSpaceOnUse">
<stop stop-color="#3D7EAA"/>
<stop offset="1" stop-color="#FFE47A"/>
</linearGradient>
</defs>
</svg>
