<svg width="40" height="40" viewBox="0 0 40 40" fill="none" xmlns="http://www.w3.org/2000/svg">
<path d="M3.54285 18.686L36.4 3.74316" stroke="#FFE47A" stroke-width="1.5" stroke-linecap="round" stroke-linejoin="round"/>
<path d="M30.2571 1.42871L36.3999 3.743L34.1142 9.88585" stroke="#FFE47A" stroke-width="1.5" stroke-linecap="round" stroke-linejoin="round"/>
<path d="M37.8571 38.6006H30.7142L30.7142 18.6006C30.7142 18.2217 30.8647 17.8583 31.1326 17.5904C31.4005 17.3225 31.7639 17.172 32.1428 17.172H36.4285C36.8074 17.172 37.1707 17.3225 37.4386 17.5904C37.7065 17.8583 37.8571 18.2217 37.8571 18.6006V38.6006Z" stroke="#FFE47A" stroke-width="1.5" stroke-linecap="round" stroke-linejoin="round"/>
<path d="M23.5714 38.6006H16.4286V22.8863C16.4286 22.5074 16.5791 22.1441 16.847 21.8761C17.1149 21.6082 17.4782 21.4577 17.8571 21.4577H22.1428C22.5217 21.4577 22.8851 21.6082 23.153 21.8761C23.4209 22.1441 23.5714 22.5074 23.5714 22.8863L23.5714 38.6006Z" stroke="#FFE47A" stroke-width="1.5" stroke-linecap="round" stroke-linejoin="round"/>
<path d="M9.28564 38.6006H2.14279L2.14279 27.172C2.14279 26.7931 2.2933 26.4298 2.56121 26.1619C2.82912 25.894 3.19248 25.7434 3.57136 25.7434H7.85707C8.23595 25.7434 8.59932 25.894 8.86723 26.1619C9.13513 26.4298 9.28564 26.7931 9.28564 27.172L9.28564 38.6006Z" stroke="#FFE47A" stroke-width="1.5" stroke-linecap="round" stroke-linejoin="round"/>
</svg>
