<svg width="40" height="40" viewBox="0 0 40 40" fill="none" xmlns="http://www.w3.org/2000/svg">
<g clip-path="url(#clip0_322_550)">
<path d="M21.3429 19.7145C20.9191 19.8985 20.462 19.9935 20 19.9935C19.538 19.9935 19.0809 19.8985 18.6571 19.7145L2.37143 12.1717C2.10698 12.0383 1.88474 11.8341 1.72946 11.5819C1.57419 11.3297 1.49197 11.0393 1.49197 10.7431C1.49197 10.4469 1.57419 10.1565 1.72946 9.90431C1.88474 9.65208 2.10698 9.44791 2.37143 9.31452L18.6571 1.71452C19.0809 1.5305 19.538 1.43555 20 1.43555C20.462 1.43555 20.9191 1.5305 21.3429 1.71452L37.6286 9.25738C37.893 9.39076 38.1153 9.59494 38.2705 9.84716C38.4258 10.0994 38.508 10.3898 38.508 10.686C38.508 10.9821 38.4258 11.2725 38.2705 11.5247C38.1153 11.777 37.893 11.9811 37.6286 12.1145L21.3429 19.7145Z" stroke="#FFE47A" stroke-width="1.5" stroke-linecap="round" stroke-linejoin="round"/>
<path d="M38.5714 21L21.1428 29.0286C20.7706 29.1984 20.3663 29.2862 19.9571 29.2862C19.548 29.2862 19.1436 29.1984 18.7714 29.0286L1.42856 21" stroke="#FFE47A" stroke-width="1.5" stroke-linecap="round" stroke-linejoin="round"/>
<path d="M38.5714 30.2852L21.1428 38.3137C20.7706 38.4835 20.3663 38.5714 19.9571 38.5714C19.548 38.5714 19.1436 38.4835 18.7714 38.3137L1.42856 30.2852" stroke="#FFE47A" stroke-width="1.5" stroke-linecap="round" stroke-linejoin="round"/>
</g>
<defs>
<clipPath id="clip0_322_550">
<rect width="40" height="40" fill="white"/>
</clipPath>
</defs>
</svg>
