<svg width="21" height="21" viewBox="0 0 21 21" fill="none" xmlns="http://www.w3.org/2000/svg">
<path d="M13.3882 10.0972L9.84662 13.6387L8.02197 11.8141C7.77783 11.5699 7.38232 11.5699 7.13818 11.8141C6.89404 12.0582 6.89404 12.4537 7.13818 12.6979L9.40472 14.9644C9.52679 15.0865 9.68671 15.1475 9.84662 15.1475C10.0065 15.1475 10.1664 15.0865 10.2885 14.9644L14.272 10.981C14.5161 10.7368 14.5161 10.3413 14.272 10.0972C14.0278 9.85303 13.6323 9.85303 13.3882 10.0972Z" fill="#FFE47A"/>
<path d="M16.3301 2.51599H15.3926V1.91602C15.3926 1.57086 15.1127 1.29102 14.7676 1.29102C14.4224 1.29102 14.1426 1.57086 14.1426 1.91602V2.51599H7.26758V1.91602C7.26758 1.57086 6.98773 1.29102 6.64258 1.29102C6.29742 1.29102 6.01758 1.57086 6.01758 1.91602V2.51599H5.08008C3.35706 2.51599 1.95508 3.91797 1.95508 5.64099V15.666C1.95508 17.389 3.35706 18.791 5.08008 18.791H16.3301C18.0531 18.791 19.4551 17.389 19.4551 15.666V5.64099C19.4551 3.91797 18.0531 2.51599 16.3301 2.51599ZM3.20508 5.64099C3.20508 4.60706 4.04614 3.76599 5.08008 3.76599H6.01758V4.36566C6.01758 4.71082 6.29742 4.99066 6.64258 4.99066C6.98773 4.99066 7.26758 4.71082 7.26758 4.36566V3.76599H14.1426V4.36566C14.1426 4.71082 14.4224 4.99066 14.7676 4.99066C15.1127 4.99066 15.3926 4.71082 15.3926 4.36566V3.76599H16.3301C17.364 3.76599 18.2051 4.60706 18.2051 5.64099V6.27209H3.20508V5.64099ZM16.3301 17.541H5.08008C4.04614 17.541 3.20508 16.7 3.20508 15.666V7.52209H18.2051V15.666C18.2051 16.7 17.364 17.541 16.3301 17.541Z" fill="#FFE47A"/>
</svg>
