<svg width="42" height="30" viewBox="0 0 42 30" fill="none" xmlns="http://www.w3.org/2000/svg">
<path fill-rule="evenodd" clip-rule="evenodd" d="M8.86647 8.22867C7.34688 6.09974 4.47461 3.80789 0.564309 1.89994C-0.45188 1.40411 0.00652511 -0.132681 1.12829 0.00921263C9.34421 1.04846 14.6694 4.64672 17.5774 9.99776C18.659 11.988 19.3385 14.1063 19.7004 16.2688C19.939 17.6946 20.002 18.7646 20.002 20.0004C20.002 25.523 15.525 30 10.0024 30C4.47981 30 0.00284775 25.523 0.00284775 20.0004C0.00284775 14.4778 4.55123 9.99776 9.77806 9.99776C9.50231 9.24065 9.43608 9.02669 8.86647 8.22867ZM30.8655 8.22867C29.3459 6.09974 26.4736 3.80789 22.5633 1.89994C21.5472 1.40411 22.0056 -0.132681 23.1273 0.00921263C31.3433 1.04846 36.6685 4.64672 39.5765 9.99776C40.658 11.988 41.3375 14.1063 41.6994 16.2688C41.938 17.6946 42.001 18.7646 42.001 20.0004C42.001 25.523 37.5241 30 32.0014 30C26.4788 30 22.0019 25.523 22.0019 20.0004C22.0019 14.4778 26.5503 9.99776 31.7771 9.99776C31.5013 9.24065 31.4351 9.02669 30.8655 8.22867Z" fill="url(#paint0_linear_908_574)"/>
<defs>
<linearGradient id="paint0_linear_908_574" x1="3.05176e-05" y1="15" x2="42.001" y2="15" gradientUnits="userSpaceOnUse">
<stop stop-color="#3D7EAA"/>
<stop offset="1" stop-color="#FFE47A"/>
</linearGradient>
</defs>
</svg>
