<svg xmlns="http://www.w3.org/2000/svg" width="231" height="62" viewBox="0 0 231 62" fill="none"><g clip-path="url(#clip0_3543_6431)"><path d="M78.2127 0C68.3146 0 60.5586 8.22372 60.5586 18.6541V18.7638C60.5586 29.3381 68.1036 37.3083 78.1168 37.3083C88.13 37.3083 95.7646 29.2901 95.7646 18.6541V18.5513C95.7646 7.97701 88.2387 0 78.2127 0ZM90.4191 18.7638C90.4191 26.5215 85.1759 32.374 78.2127 32.374C71.2495 32.374 65.9041 26.4804 65.9041 18.6678V18.565C65.9041 10.7731 71.1536 4.89311 78.1168 4.89311C85.08 4.89311 90.4191 10.9444 90.4191 18.6678V18.7638Z" fill="#E9CDB0"></path><path d="M21.9382 19.5039V17.4891H2.07809V2.35746H24.1633V0.342651H0V36.9656H24.4127V34.9508H2.07809V19.5039H21.9382Z" fill="#E9CDB0"></path><path d="M56.8747 0.431763L44.2783 33.0114L31.7267 0.431763H28.082L42.7118 37.1438H45.7426L60.3659 0.431763H56.8747Z" fill="#E9CDB0"></path><path d="M103.002 0.431763V36.8766H127.248V30.1537H109.965V0.431763H103.002Z" fill="#E9CDB0"></path><path d="M151.489 0.65094L143.19 25.2878L134.935 0.65094H125.414L138.995 36.9244H147.186L160.818 0.65094H151.489Z" fill="#E9CDB0"></path><path d="M190.884 22.3137V14.7273H174.24V8.5184H192.616V0.342651H165.23V36.9656H192.866V28.7419H174.24V22.3137H190.884Z" fill="#E9CDB0"></path><path d="M198.064 0.0752563H211.492C223.82 0.0752563 231.007 7.72332 231.007 18.4416V18.5512C231.007 29.2695 223.724 37.2328 211.294 37.2328H198.064V0.0752563ZM207.656 9.15561V28.0976H211.569C217.368 28.0976 221.16 24.671 221.16 18.702V18.5923C221.16 12.6507 217.324 9.14876 211.569 9.14876L207.656 9.15561Z" fill="#E9CDB0"></path><path d="M29.0859 49.9728H30.499V53.5639H34.3355V49.9728H35.7486V58.6077H34.3483V54.9688H30.5118V58.6077H29.0859V49.9728Z" fill="#E9CDB0"></path><path d="M44.1189 49.9111H45.3977L48.94 58.6077H47.5013L46.6829 56.5517H42.8464L42.0216 58.6077H40.5957L44.1189 49.9111ZM46.1394 55.1811L44.7519 51.7546L43.3707 55.1811H46.1394Z" fill="#E9CDB0"></path><path d="M53.916 49.9728H55.3291V58.6077H53.916V49.9728Z" fill="#E9CDB0"></path><path d="M60.9355 49.9729H64.5226C65.374 49.9228 66.2098 50.2329 66.8501 50.8364C67.0658 51.0867 67.2334 51.3803 67.3431 51.7001C67.4528 52.02 67.5026 52.3599 67.4895 52.7004C67.5077 53.3088 67.3254 53.9046 66.9746 54.3833C66.6239 54.862 66.127 55.193 65.5713 55.3183L67.7453 58.5872H66.0636L64.0814 55.5787H62.3486V58.5872H60.9355V49.9729ZM64.4203 54.2561C65.437 54.2561 66.0764 53.6873 66.0764 52.8101C66.0764 51.8781 65.437 51.3778 64.4076 51.3778H62.3486V54.2766L64.4203 54.2561Z" fill="#E9CDB0"></path><path d="M79.6138 49.9726H83.2073C84.0566 49.9236 84.89 50.2337 85.5284 50.8361C85.7496 51.0839 85.9228 51.3762 86.038 51.6962C86.1532 52.0161 86.2082 52.3573 86.1998 52.7002C86.2192 53.3088 86.0374 53.9053 85.6864 54.3843C85.3354 54.8633 84.8379 55.194 84.2815 55.318L86.4555 58.587H84.7739L82.7981 55.5785H81.0205V58.587H79.6074L79.6138 49.9726ZM83.1242 54.2558C84.1408 54.2558 84.7867 53.687 84.7867 52.8098C84.7867 51.8778 84.1472 51.3775 83.1178 51.3775H81.0525V54.2764L83.1242 54.2558Z" fill="#E9CDB0"></path><path d="M91.3848 49.9728H97.3633V51.3435H92.8043V53.5913H96.8453V54.9619H92.8043V57.2782H97.4208V58.6489H91.3848V49.9728Z" fill="#E9CDB0"></path><path d="M102.012 57.3536L102.862 56.2639C103.548 56.9766 104.464 57.3791 105.42 57.3879C106.296 57.3879 106.846 56.9424 106.846 56.3051C106.846 55.6883 106.526 55.3525 105.03 54.9824C103.31 54.5438 102.344 53.9956 102.344 52.4057C102.344 50.9254 103.495 49.9043 105.094 49.9043C106.159 49.8801 107.197 50.264 108.022 50.9871L107.248 52.0836C106.631 51.5371 105.862 51.224 105.062 51.1927C104.23 51.1927 103.751 51.6518 103.751 52.2206C103.751 52.9059 104.115 53.1869 105.669 53.5912C107.376 54.0367 108.227 54.6946 108.227 56.12C108.227 57.7374 107.037 58.6968 105.343 58.6968C104.116 58.7067 102.929 58.228 102.012 57.3536Z" fill="#E9CDB0"></path><path d="M115.177 51.3983H112.619V50.0276H119.16V51.3983H116.603V58.6077H115.177V51.3983Z" fill="#E9CDB0"></path><path d="M123.316 54.3177C123.316 53.1199 123.76 51.9712 124.551 51.1243C125.341 50.2773 126.413 49.8015 127.53 49.8015C128.648 49.8015 129.719 50.2773 130.51 51.1243C131.3 51.9712 131.744 53.1199 131.744 54.3177C131.744 55.5155 131.3 56.6642 130.51 57.5111C129.719 58.3581 128.648 58.8339 127.53 58.8339C126.413 58.8339 125.341 58.3581 124.551 57.5111C123.76 56.6642 123.316 55.5155 123.316 54.3177ZM130.254 54.3177C130.269 53.9219 130.209 53.5269 130.078 53.1564C129.947 52.7858 129.748 52.4472 129.493 52.1608C129.238 51.8743 128.931 51.6459 128.592 51.489C128.252 51.3321 127.887 51.25 127.517 51.2475C127.15 51.2481 126.786 51.3283 126.448 51.4835C126.11 51.6387 125.805 51.8656 125.551 52.1506C125.297 52.4355 125.1 52.7726 124.971 53.1415C124.842 53.5104 124.783 53.9035 124.8 54.2971C124.785 54.6927 124.845 55.0873 124.976 55.4575C125.107 55.8276 125.306 56.1658 125.561 56.4517C125.817 56.7376 126.123 56.9654 126.463 57.1215C126.802 57.2777 127.167 57.3589 127.537 57.3605C127.904 57.3618 128.268 57.2831 128.606 57.129C128.945 56.9749 129.25 56.7486 129.504 56.464C129.759 56.1794 129.956 55.8424 130.085 55.4734C130.214 55.1044 130.271 54.7112 130.254 54.3177Z" fill="#E9CDB0"></path><path d="M136.904 49.9729H140.498C141.349 49.9228 142.185 50.2329 142.825 50.8364C143.258 51.344 143.488 52.0133 143.465 52.7004C143.484 53.3091 143.302 53.9056 142.951 54.3846C142.6 54.8636 142.103 55.1943 141.546 55.3183L143.727 58.5872H142.077L140.095 55.5787H138.324V58.5872H136.904V49.9729ZM140.395 54.2561C141.406 54.2561 142.052 53.6873 142.052 52.8101C142.052 51.8781 141.412 51.3778 140.383 51.3778H138.324V54.2766L140.395 54.2561Z" fill="#E9CDB0"></path><path d="M151.541 49.9111H152.82L156.369 58.6077H154.873L154.054 56.5517H150.218L149.386 58.6077H147.941L151.541 49.9111ZM153.568 55.1811L152.174 51.7546L150.793 55.1811H153.568Z" fill="#E9CDB0"></path><path d="M162.167 51.3983H159.609V50.0276H166.144V51.3983H163.587V58.6077H162.154L162.167 51.3983Z" fill="#E9CDB0"></path><path d="M171.184 49.9728H172.597V58.6077H171.184V49.9728Z" fill="#E9CDB0"></path><path d="M177.846 54.3177C177.846 53.1199 178.29 51.9712 179.08 51.1243C179.87 50.2773 180.942 49.8015 182.059 49.8015C183.177 49.8015 184.249 50.2773 185.039 51.1243C185.829 51.9712 186.273 53.1199 186.273 54.3177C186.273 55.5155 185.829 56.6642 185.039 57.5111C184.249 58.3581 183.177 58.8339 182.059 58.8339C180.942 58.8339 179.87 58.3581 179.08 57.5111C178.29 56.6642 177.846 55.5155 177.846 54.3177ZM184.79 54.3177C184.803 53.9215 184.743 53.5264 184.611 53.1558C184.48 52.7853 184.28 52.4468 184.024 52.1604C183.769 51.8741 183.462 51.6457 183.122 51.4889C182.782 51.3321 182.417 51.25 182.047 51.2475C181.679 51.2481 181.315 51.3283 180.977 51.4835C180.639 51.6387 180.334 51.8656 180.08 52.1506C179.827 52.4355 179.629 52.7726 179.5 53.1415C179.371 53.5104 179.313 53.9035 179.329 54.2971C179.315 54.693 179.376 55.0878 179.508 55.458C179.639 55.8282 179.839 56.1662 180.095 56.452C180.351 56.7378 180.658 56.9656 180.997 57.1216C181.337 57.2777 181.703 57.3589 182.072 57.3605C182.44 57.3609 182.803 57.2815 183.141 57.127C183.479 56.9726 183.784 56.7463 184.038 56.4619C184.292 56.1775 184.49 55.8409 184.619 55.4723C184.748 55.1038 184.806 54.711 184.79 54.3177Z" fill="#E9CDB0"></path><path d="M191.439 49.9728H192.75L197.066 55.9419V49.9728H198.46V58.6077H197.271L192.827 52.44V58.6077H191.439V49.9728Z" fill="#E9CDB0"></path></g><defs><clipPath id="clip0_3543_6431"><rect width="231" height="62" fill="white"></rect></clipPath></defs></svg>